<?xml version="1.0" encoding="UTF-8" standalone="no"?>
<!-- Created with Inkscape (http://www.inkscape.org/) -->

<svg
   version="1.1"
   id="svg9"
   width="24"
   height="24"
   viewBox="0 0 24 24"
   sodipodi:docname="dice.svg"
   inkscape:version="1.2.2 (732a01da63, 2022-12-09)"
   xmlns:inkscape="http://www.inkscape.org/namespaces/inkscape"
   xmlns:sodipodi="http://sodipodi.sourceforge.net/DTD/sodipodi-0.dtd"
   xmlns="http://www.w3.org/2000/svg"
   xmlns:svg="http://www.w3.org/2000/svg">
  <defs
     id="defs13" />
  <sodipodi:namedview
     id="namedview11"
     pagecolor="#505050"
     bordercolor="#eeeeee"
     borderopacity="1"
     inkscape:pageshadow="0"
     inkscape:pageopacity="0"
     inkscape:pagecheckerboard="0"
     showgrid="false"
     inkscape:zoom="23.375"
     inkscape:cx="12.449198"
     inkscape:cy="12.491979"
     inkscape:window-width="1920"
     inkscape:window-height="986"
     inkscape:window-x="1069"
     inkscape:window-y="830"
     inkscape:window-maximized="1"
     inkscape:current-layer="g15"
     inkscape:showpageshadow="0"
     inkscape:deskcolor="#505050" />
  <g
     inkscape:groupmode="layer"
     inkscape:label="Image"
     id="g15">
    <path
       style="display:inline;fill:#ffffff;stroke:none;stroke-width:0.0241149"
       d="M 12.594014,0.00474251 C 12.084679,0.04742855 11.600931,0.22615954 11.114964,0.37065247 10.549029,0.53892405 9.9800144,0.6977794 9.4140562,0.86605633 7.372991,1.4729294 5.3298061,2.0902704 3.2759969,2.6562249 2.2070544,2.9507786 0.66124268,3.1376879 0.15302397,4.2165371 -0.08251563,4.7165427 0.00910447,5.1592922 0.06729789,5.6791605 0.13070225,6.245573 0.20113987,6.8112782 0.2645051,7.3776907 c 0.25335359,2.2646836 0.49564918,4.5336373 0.7858974,6.7941223 0.064492,0.502269 0.1191919,1.006614 0.1754847,1.509804 0.054934,0.491064 0.088455,0.969271 0.3866735,1.391851 0.3777173,0.535249 1.0684383,0.917442 1.5894837,1.316361 1.0986631,0.84115 2.2045248,1.673642 3.3032125,2.514769 0.975433,0.746739 1.9580648,1.484892 2.9334497,2.23168 0.5445611,0.416847 1.0979484,0.905882 1.8488134,0.860824 0.561127,-0.03397 0.972771,-0.270113 1.4544,-0.523336 0.536549,-0.282051 1.070561,-0.569739 1.602304,-0.860023 1.997162,-1.090337 4.017618,-2.14161 6.014805,-3.231925 0.50761,-0.277143 1.020939,-0.544614 1.528352,-0.822113 0.500708,-0.273863 0.940455,-0.520622 1.201531,-1.038014 0.334586,-0.663063 0.228341,-1.546511 0.279714,-2.264707 0.120369,-1.681922 0.200115,-3.366463 0.320461,-5.048409 0.09281,-1.2967805 0.153722,-2.5956612 0.246508,-3.8924653 0.05396,-0.7539348 0.201052,-1.5274276 -0.274068,-2.193935 C 23.201912,3.4773937 22.343052,3.2926788 21.616221,3.044268 20.131897,2.5369743 18.659329,1.9968698 17.179071,1.4787614 16.175584,1.1275338 15.175154,0.76840495 14.171669,0.41718053 13.681536,0.24563075 13.131107,-0.04026843 12.594014,0.00474251 m -0.0986,1.78868789 c 0.381102,-0.043032 0.867636,0.029814 1.207891,0.2005025 0.176722,0.088651 0.336485,0.222274 0.317774,0.4297116 -0.04378,0.4856378 -0.91181,0.6323722 -1.303807,0.6773831 -0.4607,0.052914 -0.944152,0.027106 -1.380447,-0.1364012 -0.187322,-0.070206 -0.42185,-0.2294199 -0.412187,-0.4466194 0.0085,-0.1924761 0.179704,-0.3286558 0.338235,-0.4197348 0.379129,-0.2178371 0.804628,-0.2565227 1.232541,-0.3048418 M 6.9982762,3.2560655 c 0.4355563,-0.04921 0.9643415,0.00413 1.3557966,0.2004972 0.1728027,0.086673 0.3590883,0.2315661 0.3853174,0.4297052 C 8.7632772,4.0665246 8.6151741,4.2393968 8.4773017,4.3420403 8.158641,4.579339 7.7376789,4.6830675 7.3433886,4.7287856 6.8677502,4.7839649 6.3601397,4.7667908 5.9136394,4.583915 5.7147072,4.5024331 5.493811,4.3663614 5.453408,4.145765 5.411206,3.915379 5.5839095,3.7422233 5.7657343,3.6201877 6.128693,3.3766375 6.5676011,3.3047099 6.9982762,3.2560655 m 9.7124318,0.2123164 c 0.650535,-0.073721 1.478163,0.023473 2.02127,0.3953099 0.06695,0.045836 0.124413,0.098208 0.169968,0.1642145 0.373879,0.5417843 -0.573034,0.7927885 -0.958696,0.8425177 -0.673486,0.086814 -1.507892,0.034938 -2.095322,-0.3257403 -0.07575,-0.046521 -0.150739,-0.098987 -0.209064,-0.1651346 -0.533247,-0.6048178 0.660445,-0.864576 1.071844,-0.9111672 m -4.782264,0.047182 c 0.479435,-0.05414 1.091096,0.023968 1.528353,0.220667 0.193682,0.087144 0.424142,0.2472777 0.38904,0.4803064 -0.02694,0.1789354 -0.213797,0.3048868 -0.364389,0.3903317 -0.379672,0.2154779 -0.850577,0.285377 -1.281844,0.3342332 -0.554989,0.062893 -1.17412,0.021256 -1.700908,-0.165937 -0.201053,-0.071456 -0.496049,-0.2225779 -0.48614,-0.4642643 0.0093,-0.2270843 0.245843,-0.3843166 0.436838,-0.47632 0.465432,-0.2241591 0.972698,-0.2618573 1.47905,-0.319017 m -0.32046,1.9108465 c 0.461094,-0.052088 1.029197,0.048171 1.454399,0.2201011 0.173074,0.06997 0.388941,0.1984921 0.434003,0.3865099 0.05482,0.2288293 -0.102325,0.4024804 -0.286098,0.5243266 -0.348537,0.2310943 -0.815129,0.3483881 -1.232541,0.3917942 -0.61738,0.064215 -1.254728,0.072023 -1.848814,-0.1303616 C 9.8910033,6.7377222 9.5759402,6.5936069 9.5631225,6.3161097 9.5506735,6.0463501 9.805218,5.8773456 10.03033,5.7677669 10.534365,5.5224001 11.058689,5.4884295 11.607984,5.4264102 M 2.8322846,7.1961608 c 0.2980775,-0.03909 0.5947016,0.1790295 0.7878651,0.3703501 0.4765014,0.4719793 0.7895175,1.2071363 0.789788,1.8635706 1.118e-4,0.359758 -0.050928,0.8862555 -0.5176668,0.9593635 C 3.5882513,10.437097 3.2995414,10.209376 3.1035427,10.019849 2.6165646,9.548932 2.2930675,8.7975681 2.2899863,8.1325927 2.2883363,7.7764681 2.3807553,7.2553726 2.8322846,7.1961608 M 20.60554,8.093079 c 0.702525,-0.050933 0.912106,0.6702115 0.912081,1.1954582 -4.9e-5,0.8756868 -0.695966,2.1902788 -1.725558,2.2625848 -0.823683,0.05782 -1.026633,-0.682007 -1.010315,-1.318957 0.02327,-0.9093972 0.81831,-2.0662148 1.823792,-2.139086 M 6.9982732,9.5086147 c 0.3308636,-0.05565 0.6260579,0.1340196 0.8624102,0.3326059 0.5380041,0.4519974 0.9113165,1.2885714 0.9124502,1.9715224 6.708e-4,0.396701 -0.031528,0.948676 -0.5423184,1.042425 C 7.8974864,12.916316 7.5643556,12.68456 7.3434839,12.473187 6.8370328,11.988564 6.480877,11.229392 6.4806053,10.538844 6.4804935,10.167928 6.5075983,9.5911355 6.9982732,9.5086147 m 8.0361748,0.7775503 c 0.78328,-0.0976 1.013667,0.649711 1.01066,1.24349 -0.0045,0.889557 -0.746724,2.117783 -1.750186,2.21349 -0.79033,0.0754 -0.988992,-0.678374 -0.986009,-1.269862 0.0045,-0.886586 0.746181,-2.065084 1.725535,-2.187118 M 3.3006474,10.71318 c 0.3245526,-0.06754 0.6201415,0.196275 0.8070442,0.415456 0.4368129,0.512248 0.7099191,1.271468 0.6962875,1.934414 -0.00651,0.316398 -0.082975,0.796847 -0.4679958,0.880216 -0.3085799,0.06683 -0.6051291,-0.202102 -0.7823937,-0.408497 -0.4557695,-0.530673 -0.6966575,-1.252548 -0.6966575,-1.934342 0,-0.308237 0.05507,-0.806354 0.4437153,-0.887247 m 3.944134,2.593538 c 0.3697874,-0.06332 0.6911112,0.153835 0.9363628,0.393304 0.4994257,0.48762 0.7749233,1.169957 0.8426889,1.840051 0.037642,0.372213 -0.017502,0.999538 -0.4972077,1.099562 -0.337396,0.07032 -0.6495243,-0.127342 -0.8852115,-0.334728 -0.5336417,-0.469549 -0.8817357,-1.253987 -0.9133378,-1.944369 -0.016788,-0.366859 0.041117,-0.972362 0.5167053,-1.05382 m 13.1142476,0.801399 c 0.809681,-0.111654 1.045837,0.655774 1.03541,1.266821 -0.01514,0.8876 -0.73748,2.063974 -1.725634,2.187118 -0.777339,0.09686 -1.013617,-0.656577 -1.010659,-1.24349 0.0045,-0.884321 0.717709,-2.074873 1.700883,-2.210449 M 3.7443628,14.274196 c 0.3011833,-0.05567 0.5425644,0.129371 0.7391555,0.322248 0.4135421,0.405691 0.6658928,1.040209 0.665942,1.604168 2.46e-5,0.306561 -0.028693,0.754784 -0.4190637,0.836691 -0.2624082,0.05504 -0.5457943,-0.147583 -0.712656,-0.31779 -0.4320558,-0.440721 -0.6275861,-1.0395 -0.6850472,-1.627664 -0.026944,-0.27594 0.075186,-0.755444 0.4116694,-0.817653 M 15.1084,16.490518 c 0.715984,-0.08877 1.024809,0.628386 1.010315,1.196308 -0.02263,0.88668 -0.698285,2.155011 -1.72519,2.260603 -0.771423,0.07934 -1.078005,-0.643107 -1.033141,-1.269793 0.06446,-0.899655 0.728112,-2.060648 1.748016,-2.187118 m -7.5924588,0.425577 c 0.3332549,-0.056 0.661555,0.159143 0.8870606,0.37061 0.5397795,0.506161 0.7840942,1.211618 0.8701747,1.909926 0.048537,0.39354 -0.068825,0.97932 -0.5493439,1.066017 C 8.4050478,20.320162 8.07803,20.103929 7.8611519,19.903432 7.3465897,19.427678 6.9771232,18.635266 6.9736474,17.946324 c -0.00195,-0.383467 0.045432,-0.946741 0.5422938,-1.030229 z"
       id="path99" />
  </g>
</svg>
