<?xml version="1.0" encoding="UTF-8" standalone="no"?>
<svg
   height="25"
   viewBox="0 0 40 25"
   width="40"
   fill="#ffffff"
   version="1.1"
   id="svg146"
   sodipodi:docname="pc.svg"
   inkscape:version="1.2.2 (732a01da63, 2022-12-09)"
   xmlns:inkscape="http://www.inkscape.org/namespaces/inkscape"
   xmlns:sodipodi="http://sodipodi.sourceforge.net/DTD/sodipodi-0.dtd"
   xmlns="http://www.w3.org/2000/svg"
   xmlns:svg="http://www.w3.org/2000/svg">
  <defs
     id="defs150" />
  <sodipodi:namedview
     id="namedview148"
     pagecolor="#505050"
     bordercolor="#eeeeee"
     borderopacity="1"
     inkscape:showpageshadow="0"
     inkscape:pageopacity="0"
     inkscape:pagecheckerboard="0"
     inkscape:deskcolor="#505050"
     showgrid="false"
     inkscape:zoom="5.5537345"
     inkscape:cx="25.928499"
     inkscape:cy="25.028204"
     inkscape:window-width="1920"
     inkscape:window-height="986"
     inkscape:window-x="1069"
     inkscape:window-y="830"
     inkscape:window-maximized="1"
     inkscape:current-layer="svg146" />
  <path
     d="m 34.94695,2.5 h -18 c -1.100001,0 -2,0.9 -2,2 v 12 c 0,1.1 0.899999,2 2,2 h 7 v 2 h -2 v 2 h 8 v -2 h -2 v -2 h 7 c 1.1,0 2,-0.9 2,-2 v -12 c 0,-1.1 -0.9,-2 -2,-2 z m 0,14 h -18 v -12 h 18 z"
     id="path144" />
  <path
     d="M 11.169156,2.5 H 5.0530501 C 3.95305,2.5 3.05305,3.409953 3.05305,4.522118 v 15.955764 c 0,1.112165 0.9,2.022118 2.0000001,2.022118 0.100547,-0.02525 6.1161059,0 6.1161059,0 1.1,0 2,-0.909953 2,-2.022118 V 4.522118 c 0,-1.112165 -0.9,-2.022118 -2,-2.022118 z m 0,3.004245 H 5.0530501 V 4.522118 h 6.1161059 z"
     id="path144-3"
     sodipodi:nodetypes="ssssccsssccccc"
     style="stroke-width:1.00551" />
</svg>
