<?xml version="1.0" encoding="UTF-8" standalone="no"?>
<svg
   width="1em"
   height="1em"
   preserveAspectRatio="xMidYMid meet"
   viewBox="0 0 24 24"
   style="-ms-transform: rotate(360deg); -webkit-transform: rotate(360deg); transform: rotate(360deg);"
   version="1.1"
   id="svg1059"
   sodipodi:docname="steam_error.svg"
   inkscape:version="1.2.2 (732a01da63, 2022-12-09)"
   xmlns:inkscape="http://www.inkscape.org/namespaces/inkscape"
   xmlns:sodipodi="http://sodipodi.sourceforge.net/DTD/sodipodi-0.dtd"
   xmlns="http://www.w3.org/2000/svg"
   xmlns:svg="http://www.w3.org/2000/svg">
  <defs
     id="defs1063" />
  <sodipodi:namedview
     id="namedview1061"
     pagecolor="#505050"
     bordercolor="#eeeeee"
     borderopacity="1"
     inkscape:showpageshadow="0"
     inkscape:pageopacity="0"
     inkscape:pagecheckerboard="0"
     inkscape:deskcolor="#505050"
     showgrid="false"
     inkscape:zoom="31.416667"
     inkscape:cx="11.37931"
     inkscape:cy="12"
     inkscape:window-width="1920"
     inkscape:window-height="986"
     inkscape:window-x="2149"
     inkscape:window-y="830"
     inkscape:window-maximized="1"
     inkscape:current-layer="svg1059" />
  <path
     d="M12 2a10 10 0 0 1 10 10a10 10 0 0 1-10 10c-4.6 0-8.45-3.08-9.64-7.27l3.83 1.58a2.843 2.843 0 0 0 2.78 2.27c1.56 0 2.83-1.27 2.83-2.83v-.13l3.4-2.43h.08c2.08 0 3.77-1.69 3.77-3.77s-1.69-3.77-3.77-3.77s-3.78 1.69-3.78 3.77v.05l-2.37 3.46l-.16-.01c-.59 0-1.14.18-1.59.49L2 11.2C2.43 6.05 6.73 2 12 2M8.28 17.17c.8.33 1.72-.04 2.05-.84c.33-.8-.05-1.71-.83-2.04l-1.28-.53c.49-.18 1.04-.19 1.56.03c.53.21.94.62 1.15 1.15c.22.52.22 1.1 0 1.62c-.43 1.08-1.7 1.6-2.78 1.15c-.5-.21-.88-.59-1.09-1.04l1.22.5m9.52-7.75c0 1.39-1.13 2.52-2.52 2.52a2.52 2.52 0 0 1-2.51-2.52a2.5 2.5 0 0 1 2.51-2.51a2.52 2.52 0 0 1 2.52 2.51m-4.4 0c0 1.04.84 1.89 1.89 1.89c1.04 0 1.88-.85 1.88-1.89s-.84-1.89-1.88-1.89c-1.05 0-1.89.85-1.89 1.89z"
     fill="white"
     id="path1057"
     style="fill:#ff0000" />
</svg>
