<?xml version="1.0" encoding="UTF-8" standalone="no"?>
<svg
   height="24px"
   viewBox="0 0 24 24"
   width="24px"
   fill="#FFFFFF"
   version="1.1"
   id="svg329"
   sodipodi:docname="switch.svg"
   xml:space="preserve"
   inkscape:version="1.2.2 (732a01da63, 2022-12-09)"
   xmlns:inkscape="http://www.inkscape.org/namespaces/inkscape"
   xmlns:sodipodi="http://sodipodi.sourceforge.net/DTD/sodipodi-0.dtd"
   xmlns="http://www.w3.org/2000/svg"
   xmlns:svg="http://www.w3.org/2000/svg"><defs
     id="defs333" /><sodipodi:namedview
     id="namedview331"
     pagecolor="#505050"
     bordercolor="#eeeeee"
     borderopacity="1"
     inkscape:showpageshadow="0"
     inkscape:pageopacity="0"
     inkscape:pagecheckerboard="0"
     inkscape:deskcolor="#505050"
     showgrid="false"
     inkscape:zoom="0.75590452"
     inkscape:cx="-424.65681"
     inkscape:cy="-18.520858"
     inkscape:window-width="1920"
     inkscape:window-height="986"
     inkscape:window-x="1069"
     inkscape:window-y="830"
     inkscape:window-maximized="1"
     inkscape:current-layer="svg329" /><path
     d="m 7.6742844,12.000002 c 2.120021,0 3.8371426,-1.717122 3.8371426,-3.8371435 0,-2.1200213 -1.7171216,-3.8371425 -3.8371426,-3.8371425 -2.1200219,0 -3.8371425,1.7171212 -3.8371425,3.8371425 0,2.1200215 1.7171206,3.8371435 3.8371425,3.8371435 z m 0,1.91857 C 5.112992,13.918572 0,15.204016 0,17.755714 v 1.91857 h 15.348566 v -1.91857 c 0,-2.551698 -5.11299,-3.837142 -7.6742816,-3.837142 z"
     id="path327"
     style="stroke-width:0.959282" /><path
     d="M 18.778793,8.3144608 V 10.157229 L 21.23582,7.7002044 18.778793,5.2431783 v 1.8427695 c -2.715014,0 -4.914052,2.1990382 -4.914052,4.9140512 0,0.964383 0.282557,1.861199 0.761677,2.616733 l 0.896815,-0.896815 c -0.276415,-0.509833 -0.42998,-1.099519 -0.42998,-1.719918 0,-2.0331889 1.652351,-3.6855382 3.68554,-3.6855382 z m 4.152375,1.0688064 -0.896814,0.8968148 c 0.270272,0.515975 0.429978,1.099518 0.429978,1.719917 0,2.03319 -1.65235,3.685539 -3.68554,3.685539 V 13.84277 l -2.457025,2.457026 2.457025,2.457026 v -1.842771 c 2.715014,0 4.914053,-2.199039 4.914053,-4.914052 0,-0.964382 -0.282558,-1.861197 -0.761677,-2.6167318 z"
     id="path454"
     style="fill:#ffffff;stroke:#fdfdfd;stroke-width:0.61431;stroke-dasharray:none;stroke-opacity:1" /></svg>
