<?xml version="1.0" encoding="UTF-8" standalone="no"?>
<svg
   height="24px"
   viewBox="0 0 24 24"
   width="24px"
   fill="#FFFFFF"
   version="1.1"
   id="svg146"
   sodipodi:docname="thumbdown.svg"
   inkscape:version="1.2.2 (732a01da63, 2022-12-09)"
   xmlns:inkscape="http://www.inkscape.org/namespaces/inkscape"
   xmlns:sodipodi="http://sodipodi.sourceforge.net/DTD/sodipodi-0.dtd"
   xmlns="http://www.w3.org/2000/svg"
   xmlns:svg="http://www.w3.org/2000/svg">
  <defs
     id="defs150" />
  <sodipodi:namedview
     id="namedview148"
     pagecolor="#505050"
     bordercolor="#eeeeee"
     borderopacity="1"
     inkscape:showpageshadow="0"
     inkscape:pageopacity="0"
     inkscape:pagecheckerboard="0"
     inkscape:deskcolor="#505050"
     showgrid="false"
     inkscape:zoom="31.416667"
     inkscape:cx="12"
     inkscape:cy="12"
     inkscape:window-width="1920"
     inkscape:window-height="986"
     inkscape:window-x="1069"
     inkscape:window-y="830"
     inkscape:window-maximized="1"
     inkscape:current-layer="svg146" />
  <path
     d="M0 0h24v24H0z"
     fill="none"
     id="path142" />
  <path
     d="m 9,3 h 9 c 0.83,0 1.54,0.5 1.84,1.22 l 3.02,7.05 C 22.95,11.5 23,11.74 23,12 v 2 c 0,1.1 -0.9,2 -2,2 h -6.31 l 0.95,4.57 0.03,0.32 c 0,0.41 -0.17,0.79 -0.44,1.06 L 14.17,23 7.58,16.41 C 7.22,16.05 7,15.55 7,15 V 5 C 7,3.9 7.9,3 9,3 Z M 5,3 V 15 H 1 V 3 Z"
     id="path144" />
</svg>
