<?xml version="1.0" encoding="UTF-8" standalone="no"?>
<svg
   height="24px"
   viewBox="0 0 24 24"
   width="24px"
   fill="#FFFFFF"
   version="1.1"
   id="svg942"
   sodipodi:docname="copyfill.svg"
   inkscape:version="1.1 (c68e22c387, 2021-05-23)"
   xmlns:inkscape="http://www.inkscape.org/namespaces/inkscape"
   xmlns:sodipodi="http://sodipodi.sourceforge.net/DTD/sodipodi-0.dtd"
   xmlns="http://www.w3.org/2000/svg"
   xmlns:svg="http://www.w3.org/2000/svg">
  <defs
     id="defs946" />
  <sodipodi:namedview
     id="namedview944"
     pagecolor="#505050"
     bordercolor="#eeeeee"
     borderopacity="1"
     inkscape:pageshadow="0"
     inkscape:pageopacity="0"
     inkscape:pagecheckerboard="0"
     showgrid="false"
     inkscape:zoom="23.039896"
     inkscape:cx="16.471429"
     inkscape:cy="12.543459"
     inkscape:window-width="1920"
     inkscape:window-height="986"
     inkscape:window-x="1069"
     inkscape:window-y="485"
     inkscape:window-maximized="1"
     inkscape:current-layer="svg942" />
  <path
     d="M0 0h24v24H0V0z"
     fill="none"
     id="path938" />
  <path
     d="M16 1H4c-1.1 0-2 .9-2 2v14h2V3h12V1zm3 4H8c-1.1 0-2 .9-2 2v14c0 1.1.9 2 2 2h11c1.1 0 2-.9 2-2V7c0-1.1-.9-2-2-2zm0 16H8V7h11v14z"
     id="path940" />
  <rect
     style="fill:#ffffff;stroke-width:1.13153"
     id="rect1027"
     width="12.446839"
     height="15.841433"
     x="7.2765803"
     y="6.0792837" />
</svg>
