<?xml version="1.0" encoding="UTF-8" standalone="no"?>
<svg
   height="24px"
   viewBox="0 0 24 24"
   width="24px"
   fill="#FFFFFF"
   version="1.1"
   id="svg146"
   sodipodi:docname="paintbrush.svg"
   xml:space="preserve"
   inkscape:version="1.2.2 (732a01da63, 2022-12-09)"
   xmlns:inkscape="http://www.inkscape.org/namespaces/inkscape"
   xmlns:sodipodi="http://sodipodi.sourceforge.net/DTD/sodipodi-0.dtd"
   xmlns="http://www.w3.org/2000/svg"
   xmlns:svg="http://www.w3.org/2000/svg"><defs
     id="defs150" /><sodipodi:namedview
     id="namedview148"
     pagecolor="#505050"
     bordercolor="#eeeeee"
     borderopacity="1"
     inkscape:showpageshadow="0"
     inkscape:pageopacity="0"
     inkscape:pagecheckerboard="0"
     inkscape:deskcolor="#505050"
     showgrid="false"
     inkscape:zoom="11.107469"
     inkscape:cx="19.356345"
     inkscape:cy="19.176286"
     inkscape:window-width="1920"
     inkscape:window-height="986"
     inkscape:window-x="1069"
     inkscape:window-y="830"
     inkscape:window-maximized="1"
     inkscape:current-layer="svg146" /><path
     d="M0 0h24v24H0z"
     fill="none"
     id="path142" /><path
     id="path144"
     d="M 12 3 C 7.030005 3 3 7.030005 3 12 C 3 16.969995 7.030005 21 12 21 C 12.829999 21 13.5 20.329999 13.5 19.5 C 13.5 19.11 13.349375 18.760234 13.109375 18.490234 C 12.879375 18.230235 12.730469 17.88 12.730469 17.5 C 12.730469 16.670001 13.40047 16 14.230469 16 L 16 16 C 18.759997 16 21 13.759997 21 11 C 21 9.5428296 20.560218 8.1783515 19.794922 7.0019531 L 17.769531 9.0253906 C 18.470261 9.1520149 19 9.7621139 19 10.5 C 19 11.329999 18.329999 12 17.5 12 C 16.670001 12 16 11.329999 16 10.5 C 16 10.49345 15.999917 10.486998 16 10.480469 L 13.679688 8.1601562 L 13.945312 7.8945312 C 13.391148 7.6743596 13 7.1337191 13 6.5 C 13 5.6700008 13.670001 5 14.5 5 C 15.133719 5 15.67436 5.3911484 15.894531 5.9453125 L 17.302734 4.5351562 C 15.815372 3.5695198 13.98281 3 12 3 z M 9.5 5 C 10.329999 5 11 5.6700008 11 6.5 C 11 7.3299992 10.329999 8 9.5 8 C 8.6700008 8 8 7.3299992 8 6.5 C 8 5.6700008 8.6700008 5 9.5 5 z M 13.140625 8.7539062 C 14.473534 8.7539063 15.564453 9.8428737 15.564453 11.175781 C 15.564453 12.858985 14.189064 14.234375 12.505859 14.234375 C 11.368514 14.234375 10.24172 13.67406 9.5507812 12.757812 L 8.9257812 11.929688 L 9.9648438 11.929688 C 10.089928 11.929687 10.311559 11.860955 10.464844 11.730469 C 10.618127 11.599982 10.716797 11.439083 10.716797 11.175781 C 10.716797 9.8428737 11.807716 8.7539062 13.140625 8.7539062 z M 6.5 9 C 7.3299992 9 8 9.6700008 8 10.5 C 8 11.329999 7.3299992 12 6.5 12 C 5.6700008 12 5 11.329999 5 10.5 C 5 9.6700008 5.6700008 9 6.5 9 z " /><path
     d="m 13.129629,9.483686 c -0.950648,0 -1.718039,0.767391 -1.718039,1.71804 0,0.75021 -0.664309,1.145359 -1.145359,1.145359 0.526865,0.69867 1.425972,1.14536 2.290718,1.14536 1.265623,0 2.29072,-1.025097 2.29072,-2.290719 0,-0.950649 -0.767391,-1.71804 -1.71804,-1.71804 z m 8.144035,-5.70362 -0.76739,-0.7673903 c -0.223345,-0.2233453 -0.584134,-0.2233453 -0.807478,0 l -5.131211,5.1312102 1.574869,1.5748695 5.13121,-5.1312111 c 0.223346,-0.2233445 0.223346,-0.584133 0,-0.8074783 z"
     id="path395"
     style="display:inline;fill:#ffffff;stroke:none;stroke-width:0.572472;stroke-dasharray:none;stroke-opacity:1"
     sodipodi:nodetypes="sscsssssccccs" /><g
     id="path1049" /></svg>
