<?xml version="1.0" encoding="UTF-8" standalone="no"?>
<svg
   width="1em"
   height="1em"
   preserveAspectRatio="xMidYMid meet"
   viewBox="0 0 24 24"
   style="-ms-transform: rotate(360deg); -webkit-transform: rotate(360deg); transform: rotate(360deg);"
   version="1.1"
   id="svg146"
   sodipodi:docname="discordnew.svg"
   xml:space="preserve"
   inkscape:version="1.2.2 (732a01da63, 2022-12-09)"
   xmlns:inkscape="http://www.inkscape.org/namespaces/inkscape"
   xmlns:sodipodi="http://sodipodi.sourceforge.net/DTD/sodipodi-0.dtd"
   xmlns="http://www.w3.org/2000/svg"
   xmlns:svg="http://www.w3.org/2000/svg"><defs
     id="defs150"><inkscape:path-effect
       effect="powerclip"
       id="path-effect407"
       is_visible="true"
       lpeversion="1"
       inverse="true"
       flatten="false"
       hide_clip="false"
       message="Use fill-rule evenodd on &lt;b&gt;fill and stroke&lt;/b&gt; dialog if no flatten result after convert clip to paths." /><clipPath
       clipPathUnits="userSpaceOnUse"
       id="clipPath403"><path
         d="M 18.229232,6.3628445 C 17.081766,5.8453594 15.851802,5.4628705 14.565588,5.2453767 a 0.05624839,0.05624839 0 0 0 -0.05924,0.027 c -0.157497,0.2767421 -0.332993,0.6374817 -0.455989,0.9224734 a 13.924099,13.924099 0 0 0 -4.115131,0 A 9.2697327,9.2697327 0 0 0 9.4724854,5.2723759 0.05774834,0.05774834 0 0 0 9.4132371,5.2438767 C 8.1277742,5.4613705 6.8978097,5.8438595 5.7495928,6.3620944 a 0.05249848,0.05249848 0 0 0 -0.023999,0.02025 C 3.3916608,9.8134951 2.7519292,13.159898 3.0661701,16.464304 a 0.05999827,0.05999827 0 0 0 0.02325,0.04125 15.022067,15.022067 0 0 0 4.4946204,2.234937 0.05849831,0.05849831 0 0 0 0.062997,-0.0195 c 0.34649,-0.464986 0.655481,-0.956222 0.9194734,-1.472207 0.01575,-0.03 7.5e-4,-0.066 -0.030748,-0.078 a 9.9004646,9.9004646 0 0 1 -1.4039595,-0.658481 0.05624839,0.05624839 0 0 1 -0.006,-0.09374 c 0.094497,-0.06974 0.1889944,-0.142497 0.278992,-0.215244 a 0.05624839,0.05624839 0 0 1 0.058498,-0.0075 c 2.9451666,1.322961 6.1348236,1.322961 9.0454906,0 a 0.05624839,0.05624839 0 0 1 0.05924,0.0068 c 0.08999,0.0735 0.183746,0.146245 0.278993,0.215993 a 0.05624839,0.05624839 0 0 1 -0.0045,0.09374 c -0.448487,0.257994 -0.914974,0.476237 -1.40471,0.657731 a 0.05624839,0.05624839 0 0 0 -0.03075,0.07875 c 0.269993,0.515235 0.578983,1.005722 0.918723,1.471458 a 0.05774834,0.05774834 0 0 0 0.063,0.021 14.971818,14.971818 0 0 0 4.501371,-2.235687 0.05699836,0.05699836 0 0 0 0.024,-0.04051 C 21.289144,12.644663 20.285673,9.3252591 18.252483,6.3838439 a 0.0449987,0.0449987 0 0 0 -0.02325,-0.020999 z M 9.0067488,14.452111 c -0.8864743,0 -1.6177033,-0.801727 -1.6177033,-1.784948 0,-0.983973 0.7169792,-1.784949 1.6177033,-1.784949 0.9074738,0 1.6319542,0.807727 1.6177032,1.784949 0,0.983972 -0.7169791,1.784948 -1.6177032,1.784948 z m 5.9810782,0 c -0.887225,0 -1.617704,-0.801727 -1.617704,-1.784948 0,-0.983973 0.716229,-1.784949 1.617704,-1.784949 0.907473,0 1.631953,0.807727 1.617703,1.784949 0,0.983972 -0.70948,1.784948 -1.617703,1.784948 z"
         fill="#ffffff"
         id="path405"
         style="display:none;stroke-width:0.749978" /><path
         id="lpe_path-effect407"
         style="stroke-width:0.749978"
         class="powerclip"
         d="M -5,-5 H 29.00034 V 29 H -5 Z M 18.229232,6.3628445 C 17.081766,5.8453594 15.851802,5.4628705 14.565588,5.2453767 a 0.05624839,0.05624839 0 0 0 -0.05924,0.027 c -0.157497,0.2767421 -0.332993,0.6374817 -0.455989,0.9224734 a 13.924099,13.924099 0 0 0 -4.115131,0 A 9.2697327,9.2697327 0 0 0 9.4724854,5.2723759 0.05774834,0.05774834 0 0 0 9.4132371,5.2438767 C 8.1277742,5.4613705 6.8978097,5.8438595 5.7495928,6.3620944 a 0.05249848,0.05249848 0 0 0 -0.023999,0.02025 C 3.3916608,9.8134951 2.7519292,13.159898 3.0661701,16.464304 a 0.05999827,0.05999827 0 0 0 0.02325,0.04125 15.022067,15.022067 0 0 0 4.4946204,2.234937 0.05849831,0.05849831 0 0 0 0.062997,-0.0195 c 0.34649,-0.464986 0.655481,-0.956222 0.9194734,-1.472207 0.01575,-0.03 7.5e-4,-0.066 -0.030748,-0.078 a 9.9004646,9.9004646 0 0 1 -1.4039595,-0.658481 0.05624839,0.05624839 0 0 1 -0.006,-0.09374 c 0.094497,-0.06974 0.1889944,-0.142497 0.278992,-0.215244 a 0.05624839,0.05624839 0 0 1 0.058498,-0.0075 c 2.9451666,1.322961 6.1348236,1.322961 9.0454906,0 a 0.05624839,0.05624839 0 0 1 0.05924,0.0068 c 0.08999,0.0735 0.183746,0.146245 0.278993,0.215993 a 0.05624839,0.05624839 0 0 1 -0.0045,0.09374 c -0.448487,0.257994 -0.914974,0.476237 -1.40471,0.657731 a 0.05624839,0.05624839 0 0 0 -0.03075,0.07875 c 0.269993,0.515235 0.578983,1.005722 0.918723,1.471458 a 0.05774834,0.05774834 0 0 0 0.063,0.021 14.971818,14.971818 0 0 0 4.501371,-2.235687 0.05699836,0.05699836 0 0 0 0.024,-0.04051 C 21.289144,12.644663 20.285673,9.3252591 18.252483,6.3838439 a 0.0449987,0.0449987 0 0 0 -0.02325,-0.020999 z M 9.0067488,14.452111 c 0.9007241,0 1.6177032,-0.800976 1.6177032,-1.784948 0.01425,-0.977222 -0.7102294,-1.784949 -1.6177032,-1.784949 -0.9007241,0 -1.6177033,0.800976 -1.6177033,1.784949 0,0.983221 0.731229,1.784948 1.6177033,1.784948 z m 5.9810782,0 c 0.908223,0 1.617703,-0.800976 1.617703,-1.784948 0.01425,-0.977222 -0.71023,-1.784949 -1.617703,-1.784949 -0.901475,0 -1.617704,0.800976 -1.617704,1.784949 0,0.983221 0.730479,1.784948 1.617704,1.784948 z" /></clipPath></defs><sodipodi:namedview
     id="namedview148"
     pagecolor="#505050"
     bordercolor="#eeeeee"
     borderopacity="1"
     inkscape:showpageshadow="0"
     inkscape:pageopacity="0"
     inkscape:pagecheckerboard="0"
     inkscape:deskcolor="#505050"
     showgrid="false"
     inkscape:zoom="15.708333"
     inkscape:cx="11.840849"
     inkscape:cy="12.923077"
     inkscape:window-width="1920"
     inkscape:window-height="986"
     inkscape:window-x="1069"
     inkscape:window-y="830"
     inkscape:window-maximized="1"
     inkscape:current-layer="svg146" /><g
     fill="none"
     id="g144"
     style="-ms-transform:rotate(360deg);-webkit-transform:rotate(360deg);transform:rotate(360deg);display:inline"><path
       style="fill:#ffffff;stroke-width:0.249341;-ms-transform:rotate(360deg);-webkit-transform:rotate(360deg)"
       id="path382"
       clip-path="url(#clipPath403)"
       inkscape:path-effect="#path-effect407"
       sodipodi:type="arc"
       sodipodi:cx="12.00017"
       sodipodi:cy="12"
       sodipodi:rx="12.00017"
       sodipodi:ry="12"
       d="M 24.00034,12 A 12.00017,12 0 0 1 12.00017,24 12.00017,12 0 0 1 0,12 12.00017,12 0 0 1 12.00017,0 12.00017,12 0 0 1 24.00034,12 Z" /></g></svg>
