<?xml version="1.0" encoding="UTF-8" standalone="no"?>
<svg
   enable-background="new 0 0 24 24"
   height="12"
   viewBox="0 0 24 12"
   width="24"
   fill="#ffffff"
   version="1.1"
   id="svg1"
   sodipodi:docname="dots.svg"
   inkscape:version="1.3.2 (091e20e, 2023-11-25, custom)"
   xmlns:inkscape="http://www.inkscape.org/namespaces/inkscape"
   xmlns:sodipodi="http://sodipodi.sourceforge.net/DTD/sodipodi-0.dtd"
   xmlns="http://www.w3.org/2000/svg"
   xmlns:svg="http://www.w3.org/2000/svg">
  <defs
     id="defs1" />
  <sodipodi:namedview
     id="namedview1"
     pagecolor="#505050"
     bordercolor="#eeeeee"
     borderopacity="1"
     inkscape:showpageshadow="0"
     inkscape:pageopacity="0"
     inkscape:pagecheckerboard="0"
     inkscape:deskcolor="#d1d1d1"
     showgrid="false"
     inkscape:zoom="15.645833"
     inkscape:cx="5.6884154"
     inkscape:cy="15.051931"
     inkscape:window-width="1920"
     inkscape:window-height="986"
     inkscape:window-x="-10"
     inkscape:window-y="-10"
     inkscape:window-maximized="1"
     inkscape:current-layer="svg1" />
  <polygon
     points="3.21,14.77 5.21,18.23 10,15.46 10,21 14,21 14,15.46 18.79,18.23 20.79,14.77 16,12 20.79,9.23 18.79,5.77 14,8.54 14,3 10,3 10,8.54 5.21,5.77 3.21,9.23 8,12 "
     id="polygon1"
     style="display:none"
     transform="matrix(0.33333333,0,0,0.33333333,6e-8,2)" />
  <polygon
     points="5.21,18.23 10,15.46 10,21 14,21 14,15.46 18.79,18.23 20.79,14.77 16,12 20.79,9.23 18.79,5.77 14,8.54 14,3 10,3 10,8.54 5.21,5.77 3.21,9.23 8,12 3.21,14.77 "
     id="polygon3"
     style="display:none"
     transform="matrix(0.33333333,0,0,0.33333333,8,2)" />
  <polygon
     points="3.21,9.23 8,12 3.21,14.77 5.21,18.23 10,15.46 10,21 14,21 14,15.46 18.79,18.23 20.79,14.77 16,12 20.79,9.23 18.79,5.77 14,8.54 14,3 10,3 10,8.54 5.21,5.77 "
     id="polygon2"
     style="display:none"
     transform="matrix(0.33333333,0,0,0.33333333,16,2)" />
  <circle
     style="opacity:1;fill:#f9f9f9;fill-opacity:1;fill-rule:evenodd;stroke:none;stroke-width:0.234715;stroke-linecap:round"
     id="path17"
     cx="4"
     cy="6"
     r="3.1158454" />
  <circle
     style="fill:#f9f9f9;fill-opacity:1;fill-rule:evenodd;stroke:none;stroke-width:0.234715;stroke-linecap:round"
     id="path17-7"
     cx="12"
     cy="6"
     r="3.1158454" />
  <circle
     style="fill:#f9f9f9;fill-opacity:1;fill-rule:evenodd;stroke:none;stroke-width:0.234715;stroke-linecap:round"
     id="path17-7-2"
     cx="20"
     cy="6"
     r="3.1158454" />
</svg>
