<?xml version="1.0" encoding="UTF-8" standalone="no"?>
<svg
   width="1em"
   height="1em"
   preserveAspectRatio="xMidYMid meet"
   viewBox="0 0 24 24"
   style="-ms-transform: rotate(360deg); -webkit-transform: rotate(360deg); transform: rotate(360deg);"
   version="1.1"
   id="svg146"
   sodipodi:docname="github.svg"
   inkscape:version="1.2.2 (732a01da63, 2022-12-09)"
   xmlns:inkscape="http://www.inkscape.org/namespaces/inkscape"
   xmlns:sodipodi="http://sodipodi.sourceforge.net/DTD/sodipodi-0.dtd"
   xmlns="http://www.w3.org/2000/svg"
   xmlns:svg="http://www.w3.org/2000/svg">
  <defs
     id="defs150" />
  <sodipodi:namedview
     id="namedview148"
     pagecolor="#505050"
     bordercolor="#eeeeee"
     borderopacity="1"
     inkscape:showpageshadow="0"
     inkscape:pageopacity="0"
     inkscape:pagecheckerboard="0"
     inkscape:deskcolor="#505050"
     showgrid="false"
     inkscape:zoom="22.214938"
     inkscape:cx="18.546079"
     inkscape:cy="15.62012"
     inkscape:window-width="1920"
     inkscape:window-height="986"
     inkscape:window-x="1069"
     inkscape:window-y="830"
     inkscape:window-maximized="1"
     inkscape:current-layer="svg146" />
  <g
     fill="none"
     id="g144"
     transform="translate(0,0.29603817)">
    <path
       fill-rule="evenodd"
       clip-rule="evenodd"
       d="M 12,0 C 5.37,0 0,5.37 0,12 0,17.31 3.435,21.795 8.205,23.385 8.805,23.49 9.03,23.13 9.03,22.815 9.03,22.53 9.015,21.585 9.015,20.58 6,21.135 5.22,19.845 4.98,19.17 4.845,18.825 4.26,17.76 3.75,17.475 3.33,17.25 2.73,16.695 3.735,16.68 4.68,16.665 5.355,17.55 5.58,17.91 6.66,19.725 8.385,19.215 9.075,18.9 9.18,18.12 9.495,17.595 9.84,17.295 7.17,16.995 4.38,15.96 4.38,11.37 c 0,-1.305 0.465,-2.385 1.23,-3.225 -0.12,-0.3 -0.54,-1.53 0.12,-3.18 0,0 1.005,-0.315 3.3,1.23 0.96,-0.27 1.98,-0.405 3,-0.405 1.02,0 2.04,0.135 3,0.405 2.295,-1.56 3.3,-1.23 3.3,-1.23 0.66,1.65 0.24,2.88 0.12,3.18 0.765,0.84 1.23,1.905 1.23,3.225 0,4.605 -2.805,5.625 -5.475,5.925 0.435,0.375 0.81,1.095 0.81,2.22 0,1.605 -0.015,2.895 -0.015,3.3 0,0.315 0.225,0.69 0.825,0.57 A 12.02,12.02 0 0 0 24,12 C 24,5.37 18.63,0 12,0 Z"
       fill="#ffffff"
       id="path142" />
  </g>
</svg>
