<?xml version="1.0" encoding="UTF-8" standalone="no"?>
<svg
   height="28"
   viewBox="0 0 28 28"
   width="28"
   fill="#ffffff"
   version="1.1"
   id="svg2"
   sodipodi:docname="import.svg"
   inkscape:version="1.3.2 (091e20e, 2023-11-25, custom)"
   xml:space="preserve"
   xmlns:inkscape="http://www.inkscape.org/namespaces/inkscape"
   xmlns:sodipodi="http://sodipodi.sourceforge.net/DTD/sodipodi-0.dtd"
   xmlns="http://www.w3.org/2000/svg"
   xmlns:svg="http://www.w3.org/2000/svg"><defs
     id="defs2" /><sodipodi:namedview
     id="namedview2"
     pagecolor="#505050"
     bordercolor="#eeeeee"
     borderopacity="1"
     inkscape:showpageshadow="0"
     inkscape:pageopacity="0"
     inkscape:pagecheckerboard="0"
     inkscape:deskcolor="#d1d1d1"
     showgrid="false"
     inkscape:zoom="16"
     inkscape:cx="18.09375"
     inkscape:cy="16.03125"
     inkscape:window-width="1920"
     inkscape:window-height="986"
     inkscape:window-x="2149"
     inkscape:window-y="830"
     inkscape:window-maximized="1"
     inkscape:current-layer="layer1" /><path
     d="m 4.0625,-2 h 24 v 24 h -24 z"
     fill="none"
     id="path1" /><path
     d="m 23.576706,12.909091 0.454544,-1 1,-0.454545 -1,-0.454544 -0.454544,-1.0000027 -0.454548,1.0000027 -1,0.454544 1,0.454545 z m -2.727275,0.181819 -0.909092,-2 -0.909089,2 -2,0.909091 2,0.909091 0.909089,2 0.909092,-2 2,-0.909091 z m 2.727275,2.000001 -0.454548,1 -1,0.454545 1,0.454545 0.454548,1 0.454544,-1 1,-0.454545 -1,-0.454545 z"
     id="path2"
     style="stroke-width:0.363636" /><g
     inkscape:groupmode="layer"
     id="layer1"
     inkscape:label="Layer 1"
     transform="translate(4.0625,-2)"><path
       d="M 6.4658506,19.964147 10.928099,15.997351 6.4658506,12.030553 6.465255,14.509802 h -7.5590048 l 5.955e-4,2.975097 h 7.5590049 z"
       id="path1-3"
       style="fill:#ffffff;stroke-width:1.19003"
       sodipodi:nodetypes="cccccccc" /></g></svg>
