<?xml version="1.0" encoding="UTF-8" standalone="no"?>
<!-- Generator: Adobe Illustrator 16.0.0, SVG Export Plug-In . SVG Version: 6.00 Build 0)  -->

<svg
   version="1.1"
   id="Capa_1"
   x="0px"
   y="0px"
   width="482.136px"
   height="482.135px"
   viewBox="0 0 482.136 482.135"
   style="enable-background:new 0 0 482.136 482.135;"
   xml:space="preserve"
   sodipodi:docname="link.svg"
   inkscape:version="1.3 (0e150ed6c4, 2023-07-21)"
   xmlns:inkscape="http://www.inkscape.org/namespaces/inkscape"
   xmlns:sodipodi="http://sodipodi.sourceforge.net/DTD/sodipodi-0.dtd"
   xmlns="http://www.w3.org/2000/svg"
   xmlns:svg="http://www.w3.org/2000/svg"><defs
   id="defs16" /><sodipodi:namedview
   id="namedview16"
   pagecolor="#505050"
   bordercolor="#eeeeee"
   borderopacity="1"
   inkscape:showpageshadow="0"
   inkscape:pageopacity="0"
   inkscape:pagecheckerboard="0"
   inkscape:deskcolor="#d1d1d1"
   showgrid="false"
   inkscape:zoom="0.77882749"
   inkscape:cx="243.31447"
   inkscape:cy="364.00872"
   inkscape:window-width="1920"
   inkscape:window-height="986"
   inkscape:window-x="2149"
   inkscape:window-y="830"
   inkscape:window-maximized="1"
   inkscape:current-layer="Capa_1" />&#10;<g
   id="g1"
   transform="matrix(0.77779428,0,0,0.77779086,53.562618,53.567784)"
   style="fill:#ffffff">&#10;	<path
   d="M 455.482,198.184 326.829,326.832 c -35.535,35.54 -93.108,35.54 -128.646,0 l -42.881,-42.886 42.881,-42.876 42.884,42.876 c 11.845,11.822 31.064,11.846 42.886,0 L 412.597,155.303 c 11.816,-11.831 11.816,-31.066 0,-42.9 L 369.716,69.522 c -11.822,-11.814 -31.064,-11.814 -42.887,0 L 280.90097,115.45803 238.02728,72.584139 283.953,26.641 c 35.535,-35.521 93.136,-35.521 128.644,0 l 42.886,42.881 c 35.535,35.523 35.535,93.141 -10e-4,128.662 z M 201.20617,366.69783 155.303,412.598 c -11.845,11.846 -31.064,11.817 -42.881,0 L 69.538,369.717 c -11.845,-11.821 -11.845,-31.041 0,-42.886 L 198.184,198.183 c 11.819,-11.814 31.069,-11.814 42.884,0 l 42.886,42.886 42.876,-42.886 -42.876,-42.881 c -35.54,-35.521 -93.113,-35.521 -128.65,0 L 26.655,283.946 c -35.538,35.545 -35.538,93.146 0,128.652 l 42.883,42.882 c 35.51,35.54 93.11,35.54 128.646,0 l 45.90109,-45.90307 z"
   id="path1"
   style="fill:#ffffff"
   sodipodi:nodetypes="cccccccccccccccccccccccccccccccccc" />&#10;</g>&#10;<g
   id="g2">&#10;</g>&#10;<g
   id="g3">&#10;</g>&#10;<g
   id="g4">&#10;</g>&#10;<g
   id="g5">&#10;</g>&#10;<g
   id="g6">&#10;</g>&#10;<g
   id="g7">&#10;</g>&#10;<g
   id="g8">&#10;</g>&#10;<g
   id="g9">&#10;</g>&#10;<g
   id="g10">&#10;</g>&#10;<g
   id="g11">&#10;</g>&#10;<g
   id="g12">&#10;</g>&#10;<g
   id="g13">&#10;</g>&#10;<g
   id="g14">&#10;</g>&#10;<g
   id="g15">&#10;</g>&#10;<g
   id="g16">&#10;</g>&#10;</svg>
