<svg xmlns="http://www.w3.org/2000/svg" xmlns:xlink="http://www.w3.org/1999/xlink" viewBox="0,0,256,256" width="50px" height="50px" fill-rule="nonzero"><g fill="#ffffff" fill-rule="nonzero" stroke="none" stroke-width="1" stroke-linecap="butt" stroke-linejoin="miter" stroke-miterlimit="10" stroke-dasharray="" stroke-dashoffset="0" font-family="none" font-weight="none" font-size="none" text-anchor="none" style="mix-blend-mode: normal"><g transform="scale(5.12,5.12)"><path d="M44.52734,34.75c-1.07812,2.39453 -1.59766,3.46484 -2.98437,5.57813c-1.94141,2.95313 -4.67969,6.64063 -8.0625,6.66406c-3.01172,0.02734 -3.78906,-1.96484 -7.87891,-1.92969c-4.08594,0.01953 -4.9375,1.96875 -7.95312,1.9375c-3.38672,-0.03125 -5.97656,-3.35156 -7.91797,-6.30078c-5.42969,-8.26953 -6.00391,-17.96484 -2.64844,-23.12109c2.375,-3.65625 6.12891,-5.80469 9.65625,-5.80469c3.59375,0 5.85156,1.97266 8.82031,1.97266c2.88281,0 4.63672,-1.97656 8.79297,-1.97656c3.14063,0 6.46094,1.71094 8.83594,4.66406c-7.76562,4.25781 -6.50391,15.34766 1.33984,18.31641zM31.19531,8.46875c1.51172,-1.94141 2.66016,-4.67969 2.24219,-7.46875c-2.46484,0.16797 -5.34766,1.74219 -7.03125,3.78125c-1.52734,1.85938 -2.79297,4.61719 -2.30078,7.28516c2.69141,0.08594 5.47656,-1.51953 7.08984,-3.59766z"></path></g></g></svg>