<?xml version="1.0" encoding="UTF-8" standalone="no"?>
<svg
   enable-background="new 0 0 24 24"
   height="24px"
   viewBox="0 0 24 24"
   width="24px"
   fill="#ffffff"
   version="1.1"
   id="svg1"
   sodipodi:docname="newexclusion.svg"
   xml:space="preserve"
   inkscape:version="1.3 (0e150ed6c4, 2023-07-21)"
   xmlns:inkscape="http://www.inkscape.org/namespaces/inkscape"
   xmlns:sodipodi="http://sodipodi.sourceforge.net/DTD/sodipodi-0.dtd"
   xmlns="http://www.w3.org/2000/svg"
   xmlns:svg="http://www.w3.org/2000/svg"><defs
     id="defs1"><inkscape:path-effect
       effect="powerclip"
       id="path-effect19"
       is_visible="true"
       lpeversion="1"
       inverse="true"
       flatten="false"
       hide_clip="false"
       message="Use fill-rule evenodd on &lt;b&gt;fill and stroke&lt;/b&gt; dialogue if no flatten result after convert clip to paths." /><inkscape:path-effect
       effect="fill_between_many"
       method="originald"
       linkedpaths="#path4,0,1"
       id="path-effect4" /><inkscape:path-effect
       effect="fill_between_many"
       method="originald"
       linkedpaths="#path4,0,1"
       id="path-effect5" /><clipPath
       clipPathUnits="userSpaceOnUse"
       id="clipPath19"><path
         id="path19"
         style="display:none;fill:#ff0000;stroke-width:0.602506"
         d="M 22.269,14.24722 V 17.678 H 9.6056036 V 14.24722 Z M 14.220898,9.6345407 H 17.653 V 22.291 h -3.432102 z"
         sodipodi:nodetypes="cccccccccc" /><path
         id="lpe_path-effect19"
         style="display:inline;fill:#ff0000;stroke-width:0.602506"
         class="powerclip"
         d="M -4,-3 H 28 V 27 H -4 Z M 22.269,14.24722 H 9.6056036 V 17.678 H 22.269 Z M 14.220898,9.6345407 V 22.291 H 17.653 V 9.6345407 Z" /></clipPath></defs><sodipodi:namedview
     id="namedview1"
     pagecolor="#505050"
     bordercolor="#eeeeee"
     borderopacity="1"
     inkscape:showpageshadow="0"
     inkscape:pageopacity="0"
     inkscape:pagecheckerboard="0"
     inkscape:deskcolor="#d1d1d1"
     showgrid="false"
     inkscape:zoom="2.8284271"
     inkscape:cx="-24.218407"
     inkscape:cy="31.996582"
     inkscape:window-width="1920"
     inkscape:window-height="986"
     inkscape:window-x="2149"
     inkscape:window-y="830"
     inkscape:window-maximized="1"
     inkscape:current-layer="svg1" /><rect
     fill="none"
     height="24"
     width="24"
     id="rect1" /><path
     d="M 3.01,12.34 C 3,12.23 3,12.11 3,12 3,6.48 7.48,2 13,2 c 5.52,0 10,4.48 10,10 0,5.17 -3.93,9.43 -8.96,9.95 0.93,-0.73 1.72,-1.64 2.32,-2.68 C 19.1,18 21,15.22 21,12 21,10.15 20.37,8.45 19.31,7.1 l -5.66,5.66 c -0.56,-0.4 -1.17,-0.73 -1.82,-1 L 17.9,5.69 C 16.55,4.63 14.85,4 13,4 8.76,4 5.3,7.29 5.02,11.45 4.31,11.67 3.63,11.97 3.01,12.34 Z M 8,13 c 3.18,0 5.9,1.87 7,4.5 C 13.9,20.13 11.18,22 8,22 4.82,22 2.1,20.13 1,17.5 2.1,14.87 4.82,13 8,13 Z m 0,7 c 1.38,0 2.5,-1.12 2.5,-2.5 C 10.5,16.12 9.38,15 8,15 6.62,15 5.5,16.12 5.5,17.5 5.5,18.88 6.62,20 8,20 Z M 6.5,17.5 C 6.5,18.33 7.17,19 8,19 8.83,19 9.5,18.33 9.5,17.5 9.5,16.67 8.83,16 8,16 7.17,16 6.5,16.67 6.5,17.5 Z"
     id="path1"
     style="display:inline"
     clip-path="url(#clipPath19)"
     inkscape:original-d="M 3.01,12.34 C 3,12.23 3,12.11 3,12 3,6.48 7.48,2 13,2 c 5.52,0 10,4.48 10,10 0,5.17 -3.93,9.43 -8.96,9.95 0.93,-0.73 1.72,-1.64 2.32,-2.68 C 19.1,18 21,15.22 21,12 21,10.15 20.37,8.45 19.31,7.1 l -5.66,5.66 c -0.56,-0.4 -1.17,-0.73 -1.82,-1 L 17.9,5.69 C 16.55,4.63 14.85,4 13,4 8.76,4 5.3,7.29 5.02,11.45 4.31,11.67 3.63,11.97 3.01,12.34 Z M 8,13 c 3.18,0 5.9,1.87 7,4.5 C 13.9,20.13 11.18,22 8,22 4.82,22 2.1,20.13 1,17.5 2.1,14.87 4.82,13 8,13 Z m 0,7 c 1.38,0 2.5,-1.12 2.5,-2.5 C 10.5,16.12 9.38,15 8,15 6.62,15 5.5,16.12 5.5,17.5 5.5,18.88 6.62,20 8,20 Z M 6.5,17.5 C 6.5,18.33 7.17,19 8,19 8.83,19 9.5,18.33 9.5,17.5 9.5,16.67 8.83,16 8,16 7.17,16 6.5,16.67 6.5,17.5 Z"
     inkscape:path-effect="#path-effect19" /><path
     id="rect2"
     style="display:inline;fill:#00ff00;stroke-width:11.3364"
     d="m 429.76926,289.89245 v 53.27669 H 202.86455 V 289.89245 Z M 289.67855,203.07843 h 53.27669 v 226.90471 h -53.27669 z"
     transform="matrix(0.05316302,0,0,0.05313288,-0.84783201,-0.84624189)" /></svg>
