<?xml version="1.0" encoding="UTF-8" standalone="no"?>
<!-- Generator: Adobe Illustrator 16.0.0, SVG Export Plug-In . SVG Version: 6.00 Build 0)  -->

<svg
   version="1.1"
   id="Capa_1"
   x="0px"
   y="0px"
   width="482.136px"
   height="482.135px"
   viewBox="0 0 482.136 482.135"
   style="enable-background:new 0 0 482.136 482.135;"
   xml:space="preserve"
   sodipodi:docname="newlink.svg"
   inkscape:version="1.3 (0e150ed6c4, 2023-07-21)"
   xmlns:inkscape="http://www.inkscape.org/namespaces/inkscape"
   xmlns:sodipodi="http://sodipodi.sourceforge.net/DTD/sodipodi-0.dtd"
   xmlns="http://www.w3.org/2000/svg"
   xmlns:svg="http://www.w3.org/2000/svg"><defs
   id="defs16"><inkscape:path-effect
     effect="fill_between_many"
     method="originald"
     linkedpaths="#path4,0,1|"
     id="path-effect4" /><inkscape:path-effect
     effect="fill_between_many"
     method="originald"
     linkedpaths="#path4,0,1|"
     id="path-effect5" /></defs><sodipodi:namedview
   id="namedview16"
   pagecolor="#505050"
   bordercolor="#eeeeee"
   borderopacity="1"
   inkscape:showpageshadow="0"
   inkscape:pageopacity="0"
   inkscape:pagecheckerboard="0"
   inkscape:deskcolor="#d1d1d1"
   showgrid="false"
   inkscape:zoom="0.25"
   inkscape:cx="-9.9999999"
   inkscape:cy="106"
   inkscape:window-width="1920"
   inkscape:window-height="986"
   inkscape:window-x="2149"
   inkscape:window-y="830"
   inkscape:window-maximized="1"
   inkscape:current-layer="Capa_1" />&#10;&#10;&#10;&#10;&#10;&#10;&#10;&#10;&#10;&#10;&#10;&#10;&#10;&#10;&#10;&#10;<path
   id="path1"
   style="fill:#f9f9f9;stroke-width:0.777793"
   d="M 324.46094 53.568359 C 306.35342 53.568361 288.24328 60.475125 274.42383 74.289062 L 238.70312 110.02344 L 272.05078 143.36914 L 307.77344 107.64062 C 316.96929 98.451818 331.93383 98.451818 341.12891 107.64062 L 374.48242 140.99414 C 383.67283 150.1985 383.67215 165.15786 374.48242 174.35938 L 348.62305 200.21875 L 348.62305 266.92578 L 407.83789 207.71289 C 435.47756 180.08501 435.47875 135.27006 407.83984 107.64062 L 374.48242 74.289062 C 360.67348 60.47512 342.56846 53.568358 324.46094 53.568359 z M 224.39258 153.63867 C 206.2872 153.63867 188.18155 160.54543 174.36133 174.35938 L 74.298828 274.41797 C 46.657628 302.06454 46.657599 346.86621 74.298828 374.48242 L 107.65234 407.83594 C 135.2718 435.47859 180.07323 435.47861 207.71289 407.83594 L 243.41406 372.13281 L 220.12109 348.83789 L 200.00781 348.83789 L 174.36133 374.48242 C 165.14837 383.69612 150.199 383.67356 141.00781 374.48242 L 107.65234 341.12891 C 98.439725 331.93465 98.439386 316.98636 107.65234 307.77344 L 207.71289 207.71289 C 216.90563 198.52409 231.87873 198.52408 241.06836 207.71289 L 274.42383 241.06836 L 284.00977 231.48047 L 284.00977 203.07812 L 284.00977 197.41016 L 297.47266 197.41016 L 274.42383 174.35938 C 260.60243 160.54543 242.49796 153.63867 224.39258 153.63867 z M 207.71289 241.06836 L 174.35938 274.41797 L 197.19727 297.25781 L 197.19727 284.22461 L 284.00977 284.22461 L 284.00977 264.83203 L 274.42383 274.41797 C 265.22876 283.63167 250.28134 283.61298 241.06836 274.41797 L 207.71289 241.06836 z " />&#10;<path
   id="rect2"
   style="display:inline;fill:#00ff00;stroke-width:11.3364"
   d="m 429.76926,289.89245 v 53.27669 H 202.86455 V 289.89245 Z M 289.67855,203.07843 h 53.27669 v 226.90471 h -53.27669 z" /></svg>
