<?xml version="1.0" encoding="UTF-8" standalone="no"?>
<svg
   height="24px"
   viewBox="0 0 24 24"
   width="24px"
   fill="#fff"
   version="1.1"
   id="svg2"
   sodipodi:docname="ra_worker_crash.svg"
   inkscape:version="1.3.2 (091e20e, 2023-11-25, custom)"
   xml:space="preserve"
   xmlns:inkscape="http://www.inkscape.org/namespaces/inkscape"
   xmlns:sodipodi="http://sodipodi.sourceforge.net/DTD/sodipodi-0.dtd"
   xmlns="http://www.w3.org/2000/svg"
   xmlns:svg="http://www.w3.org/2000/svg"><defs
     id="defs2" /><sodipodi:namedview
     id="namedview2"
     pagecolor="#505050"
     bordercolor="#eeeeee"
     borderopacity="1"
     inkscape:showpageshadow="0"
     inkscape:pageopacity="0"
     inkscape:pagecheckerboard="0"
     inkscape:deskcolor="#d1d1d1"
     showgrid="false"
     inkscape:zoom="16"
     inkscape:cx="12.53125"
     inkscape:cy="13.34375"
     inkscape:window-width="1920"
     inkscape:window-height="986"
     inkscape:window-x="-10"
     inkscape:window-y="-10"
     inkscape:window-maximized="1"
     inkscape:current-layer="svg2" /><g
     id="g5"
     inkscape:label="bgremove"
     style="display:none"><path
       id="path12"
       style="display:none;opacity:1;fill:#ff0000;fill-rule:evenodd;stroke-width:0.270677;stroke-linecap:round"
       d="M 3.7054053 -2.6723664 L 3.7067863 -0.89216988 L 3.7067863 -0.88940775 L 3.7067863 0.89216988 L 31.634742 0.89216988 L 31.634742 -0.88940775 L 31.634742 -0.89216988 L 31.634742 -2.6737475 L 3.7054053 -2.6723664 z "
       transform="rotate(45)" /><rect
       style="display:inline;opacity:1;fill:#0000ff;fill-rule:evenodd;stroke-width:0.270677;stroke-linecap:round"
       id="rect6"
       width="27.928919"
       height="1.7837086"
       x="3.7045195"
       y="-1.7685938"
       transform="rotate(45)" /></g><path
     id="path1-4"
     style="display:inline;fill:#ff0000"
     d="M 479.96562 -920.03438 C 441.299 -920.03438 408.31456 -906.35206 380.98125 -879.01875 C 353.64794 -851.68544 339.96562 -818.701 339.96562 -780.03438 C 339.96562 -774.58286 340.36137 -769.24775 340.90312 -764.01875 L 633.48125 -471.51875 L 688.0125 -440.03438 L 673.40313 -431.59688 L 827.075 -277.84688 C 827.86598 -279.07779 828.76743 -280.23354 829.49688 -281.51875 C 836.49687 -293.85207 839.96562 -307.32085 839.96563 -321.9875 L 839.96563 -398.00313 C 839.96562 -412.66978 836.49687 -426.13855 829.49688 -438.47188 C 822.49688 -450.8052 812.63228 -460.6698 799.96563 -468.00313 L 519.96563 -629.01875 L 519.96563 -645.97188 C 549.29893 -654.63853 573.33023 -671.16982 591.99688 -695.50313 C 610.66352 -719.83643 619.96563 -748.03441 619.96563 -780.03438 C 619.96563 -818.701 606.36143 -851.68544 579.02813 -879.01875 C 551.69482 -906.35206 518.63225 -920.03438 479.96562 -920.03438 z M 334.73125 -568.55 L 159.96562 -468.00313 C 147.29897 -460.6698 137.51249 -450.8052 130.5125 -438.47188 C 123.51251 -426.13855 119.96562 -412.66978 119.96563 -398.00313 L 119.96563 -321.9875 C 119.96563 -307.32085 123.51251 -293.85207 130.5125 -281.51875 C 137.51249 -269.18543 147.29897 -259.32083 159.96562 -251.9875 L 439.96562 -90.971875 C 452.63228 -83.638549 465.96564 -80.034375 479.96562 -80.034375 C 493.96561 -80.034375 507.29897 -83.638549 519.96563 -90.971875 L 705.59063 -197.69063 L 545.43438 -357.84688 L 479.96562 -320.03438 L 271.99687 -440.03438 L 393.24687 -510.03438 L 334.73125 -568.55 z M 439.96562 -463.31563 L 439.96562 -400.03438 L 503.24687 -400.03438 L 439.96562 -463.31563 z "
     transform="matrix(0.025,0,0,0.025,0.495,24.33875)" /><rect
     style="display:inline;opacity:1;fill:#ff0000;fill-rule:evenodd;stroke-width:0.270677;stroke-linecap:round"
     id="rect3"
     width="27.928919"
     height="1.7837086"
     x="3.7045195"
     y="-1.7685938"
     transform="rotate(45)" /></svg>
