<?xml version="1.0" encoding="UTF-8" standalone="no"?>
<svg
   height="24px"
   viewBox="0 0 24 24"
   width="24px"
   fill="#fff"
   version="1.1"
   id="svg2"
   sodipodi:docname="ra_worker_waiting.svg"
   inkscape:version="1.3.2 (091e20e, 2023-11-25, custom)"
   xml:space="preserve"
   xmlns:inkscape="http://www.inkscape.org/namespaces/inkscape"
   xmlns:sodipodi="http://sodipodi.sourceforge.net/DTD/sodipodi-0.dtd"
   xmlns="http://www.w3.org/2000/svg"
   xmlns:svg="http://www.w3.org/2000/svg"><defs
     id="defs2"><inkscape:path-effect
       effect="powerclip"
       id="path-effect891"
       is_visible="true"
       lpeversion="1"
       inverse="true"
       flatten="false"
       hide_clip="false"
       message="Use fill-rule evenodd on &lt;b&gt;fill and stroke&lt;/b&gt; dialog if no flatten result after convert clip to paths." /><inkscape:path-effect
       effect="powerclip"
       id="path-effect858"
       is_visible="true"
       lpeversion="1"
       inverse="true"
       flatten="false"
       hide_clip="false"
       message="Use fill-rule evenodd on &lt;b&gt;fill and stroke&lt;/b&gt; dialog if no flatten result after convert clip to paths." /><clipPath
       clipPathUnits="userSpaceOnUse"
       id="clipPath854"><path
         id="lpe_path-effect858"
         style="fill:#00ff3c;fill-opacity:1;stroke-width:0.799757"
         class="powerclip"
         d="M 317.20692,120.39699 H 588.41295 V 391.60301 H 317.20692 Z m 222.4076,135.15031 a 86.691422,86.691422 0 0 0 -86.69142,-86.69142 86.691422,86.691422 0 0 0 -86.69143,86.69142 86.691422,86.691422 0 0 0 86.69143,86.69142 86.691422,86.691422 0 0 0 86.69142,-86.69142 z" /></clipPath><clipPath
       clipPathUnits="userSpaceOnUse"
       id="clipPath887"><circle
         style="display:block;fill:#ff0000;fill-opacity:1;stroke:none;stroke-width:0.423053"
         id="circle889"
         cx="236.32378"
         cy="473.5918"
         r="73.22036" /></clipPath></defs><sodipodi:namedview
     id="namedview2"
     pagecolor="#505050"
     bordercolor="#eeeeee"
     borderopacity="1"
     inkscape:showpageshadow="0"
     inkscape:pageopacity="0"
     inkscape:pagecheckerboard="0"
     inkscape:deskcolor="#d1d1d1"
     showgrid="false"
     inkscape:zoom="8"
     inkscape:cx="25.5625"
     inkscape:cy="24.9375"
     inkscape:window-width="1920"
     inkscape:window-height="986"
     inkscape:window-x="-10"
     inkscape:window-y="-10"
     inkscape:window-maximized="1"
     inkscape:current-layer="svg2" /><g
     id="g5"
     inkscape:label="bgremove"
     style="display:none"><path
       id="path12"
       style="display:none;opacity:1;fill:#ff0000;fill-rule:evenodd;stroke-width:0.270677;stroke-linecap:round"
       d="M 3.7054053 -2.6723664 L 3.7067863 -0.89216988 L 3.7067863 -0.88940775 L 3.7067863 0.89216988 L 31.634742 0.89216988 L 31.634742 -0.88940775 L 31.634742 -0.89216988 L 31.634742 -2.6737475 L 3.7054053 -2.6723664 z "
       transform="rotate(45)" /><rect
       style="display:inline;opacity:1;fill:#0000ff;fill-rule:evenodd;stroke-width:0.270677;stroke-linecap:round"
       id="rect6"
       width="27.928919"
       height="1.7837086"
       x="3.7045195"
       y="-1.7685938"
       transform="rotate(45)" /></g><path
     id="path1"
     style="fill:#ffffff"
     d="M 480 -920 C 441.33337 -920 408.34893 -906.31768 381.01562 -878.98438 C 353.68232 -851.65107 340 -818.66663 340 -780 C 340 -748.00003 349.3021 -719.80206 367.96875 -695.46875 C 386.6354 -671.13544 410.6667 -654.68228 440 -646.01562 L 440 -628.98438 L 160 -467.96875 C 147.33335 -460.63542 137.46874 -450.84895 130.46875 -438.51562 C 123.46876 -426.1823 120 -412.6354 120 -397.96875 L 120 -322.03125 C 120 -307.3646 123.46876 -293.8177 130.46875 -281.48438 C 137.46874 -269.15105 147.33335 -259.36458 160 -252.03125 L 440 -91.015625 C 452.66665 -83.682299 466.00001 -80 480 -80 C 487.93888 -80 495.61487 -81.313764 503.125 -83.671875 A 280 280 0 0 1 440 -260 A 280 280 0 0 1 450.85938 -336.79688 L 272.03125 -440 L 440 -537.03125 L 440 -400 L 478.20312 -400 A 280 280 0 0 1 520 -455 L 520 -537.03125 L 580.54688 -502.03125 A 280 280 0 0 1 679.76562 -537.10938 L 520 -628.98438 L 520 -646.01562 C 549.3333 -654.68228 573.3646 -671.13544 592.03125 -695.46875 C 610.6979 -719.80206 620 -748.00003 620 -780 C 620 -818.66663 606.31768 -851.65107 578.98438 -878.98438 C 551.65107 -906.31768 518.66663 -920 480 -920 z "
     transform="matrix(0.025,0,0,0.025,0,24.5)" /><path
     d="m 18,13 c -2.76,0 -5,2.24 -5,5 0,2.76 2.24,5 5,5 2.76,0 5,-2.24 5,-5 0,-2.76 -2.24,-5 -5,-5 z M 19.65,20.35 17.5,18.2 V 15 h 1 v 2.79 l 1.85,1.85 z"
     id="path2"
     style="fill:#ffffff" /></svg>
