<?xml version="1.0" encoding="UTF-8" standalone="no"?>
<svg
   enable-background="new 0 0 24 24"
   height="24px"
   viewBox="0 0 24 24"
   width="24px"
   fill="#ffffff"
   version="1.1"
   id="svg6"
   sodipodi:docname="unautoswitchtheme.svg"
   xml:space="preserve"
   inkscape:version="1.3.2 (091e20e, 2023-11-25, custom)"
   xmlns:inkscape="http://www.inkscape.org/namespaces/inkscape"
   xmlns:sodipodi="http://sodipodi.sourceforge.net/DTD/sodipodi-0.dtd"
   xmlns="http://www.w3.org/2000/svg"
   xmlns:svg="http://www.w3.org/2000/svg"><defs
     id="defs6"><inkscape:path-effect
       effect="fill_between_many"
       method="originald"
       linkedpaths="#path20,0,1"
       id="path-effect26" /></defs><sodipodi:namedview
     id="namedview6"
     pagecolor="#505050"
     bordercolor="#eeeeee"
     borderopacity="1"
     inkscape:showpageshadow="0"
     inkscape:pageopacity="0"
     inkscape:pagecheckerboard="0"
     inkscape:deskcolor="#d1d1d1"
     inkscape:zoom="15.645833"
     inkscape:cx="11.408788"
     inkscape:cy="18.055925"
     inkscape:window-width="1920"
     inkscape:window-height="986"
     inkscape:window-x="1070"
     inkscape:window-y="831"
     inkscape:window-maximized="1"
     inkscape:current-layer="svg6" /><g
     id="g6"
     style="display:inline"><g
       id="g5"><path
         d="M 19.03,3.56 C 17.36,2.17 15.29,1.26 13,1.05 v 2.01 c 1.73,0.19 3.31,0.88 4.61,1.92 z"
         id="path1"
         style="display:inline" /><path
         id="path2"
         style="display:inline"
         d="M 11 1.0507812 C 9.2968844 1.199525 7.7157763 1.7454982 6.3300781 2.5878906 L 7.7949219 4.0527344 C 8.7721348 3.5309325 9.8530393 3.1865137 11 3.0605469 L 11 1.0507812 z " /><path
         id="path3"
         style="display:inline"
         d="M 2.5898438 6.3300781 C 1.7497979 7.7157763 1.2069622 9.2968844 1.0507812 11 L 3.0605469 11 C 3.1865486 9.8527214 3.5326434 8.7723481 4.0546875 7.7949219 L 2.5898438 6.3300781 z " /><path
         d="m 20.94,11 h 2.01 C 22.74,8.71 21.83,6.64 20.44,4.97 l -1.42,1.42 c 1.04,1.3 1.73,2.88 1.92,4.61 z"
         id="path4"
         style="display:inline" /><path
         id="polygon4"
         style="display:inline"
         d="M 12 7 L 11.607422 7.8652344 L 13.044922 9.3027344 L 12 7 z M 14.697266 10.955078 L 16.134766 12.392578 L 17 12 L 14.697266 10.955078 z M 7.8671875 11.607422 L 7 12 L 9.3066406 13.046875 L 7.8671875 11.607422 z M 10.953125 14.693359 L 12 17 L 12.392578 16.132812 L 10.953125 14.693359 z " /><path
         id="path5"
         style="display:inline"
         d="M 20.480469 14.990234 C 20.332406 15.410346 20.153553 15.815781 19.947266 16.205078 L 21.416016 17.673828 C 21.836477 16.975808 22.181012 16.22734 22.439453 15.439453 L 20.480469 14.990234 z M 1 15 L 1 21 L 3 21 L 3 18.300781 C 4.989998 21.140778 8.2700037 23 12 23 C 14.078534 23 16.020407 22.421265 17.677734 21.417969 L 16.210938 19.951172 C 14.95526 20.620152 13.521906 21 12 21 C 8.8900031 21 6.1490609 19.409998 4.5390625 17 L 7 17 L 7 15 L 1 15 z " /></g></g><rect
     style="display:inline;fill:#ff0000;stroke:none;stroke-width:7.20571;stroke-dasharray:none;stroke-opacity:1"
     id="rect7"
     width="473.07748"
     height="51.114143"
     x="104.38254"
     y="-25.557417"
     transform="matrix(0.0452549,0.0452549,-0.0452549,0.0452549,-3.4281026,-3.4283849)" /><rect
     style="display:none;fill:#0000ff;stroke:none;stroke-width:0.74583;stroke-dasharray:none;stroke-opacity:1"
     id="rect42"
     width="48.96611"
     height="5.2905936"
     x="-7.5123291"
     y="-2.6455185"
     transform="rotate(45)" /></svg>
