<?xml version="1.0" encoding="UTF-8" standalone="no"?>
<svg
   enable-background="new 0 0 24 24"
   height="24px"
   viewBox="0 0 24 24"
   width="24px"
   fill="#ffffff"
   version="1.1"
   id="svg1"
   sodipodi:docname="unexclusion.svg"
   inkscape:version="1.3.2 (091e20e, 2023-11-25, custom)"
   xml:space="preserve"
   xmlns:inkscape="http://www.inkscape.org/namespaces/inkscape"
   xmlns:sodipodi="http://sodipodi.sourceforge.net/DTD/sodipodi-0.dtd"
   xmlns="http://www.w3.org/2000/svg"
   xmlns:svg="http://www.w3.org/2000/svg"><defs
     id="defs1"><inkscape:path-effect
       effect="fill_between_many"
       method="originald"
       linkedpaths="#path20,0,1"
       id="path-effect26" /></defs><sodipodi:namedview
     id="namedview1"
     pagecolor="#505050"
     bordercolor="#eeeeee"
     borderopacity="1"
     inkscape:showpageshadow="0"
     inkscape:pageopacity="0"
     inkscape:pagecheckerboard="0"
     inkscape:deskcolor="#d1d1d1"
     showgrid="false"
     inkscape:zoom="15.645834"
     inkscape:cx="13.454061"
     inkscape:cy="17.480692"
     inkscape:window-width="1920"
     inkscape:window-height="986"
     inkscape:window-x="1070"
     inkscape:window-y="831"
     inkscape:window-maximized="1"
     inkscape:current-layer="svg1" /><path
     id="path1"
     style="display:inline"
     d="M 13 2 C 10.919921 2 8.9873725 2.6363779 7.3867188 3.7246094 L 8.8320312 5.1699219 C 10.045324 4.4282441 11.471572 4 13 4 C 14.849998 4 16.550392 4.6294542 17.900391 5.6894531 L 13.625 9.9648438 L 15.035156 11.375 L 19.310547 7.0996094 C 20.370546 8.449608 21 10.150002 21 12 C 21 13.526125 20.568869 14.951482 19.828125 16.166016 L 21.275391 17.613281 C 22.363472 16.012099 23 14.08014 23 12 C 23 6.4800055 18.519994 2 13 2 z M 3.9921875 7.6542969 C 3.3563976 8.9687143 3 10.44284 3 12 C 3 12.11 2.9997656 12.229844 3.0097656 12.339844 C 3.629765 11.969844 4.309532 11.669219 5.0195312 11.449219 C 5.0731218 10.653017 5.2439289 9.8893233 5.5136719 9.1738281 L 3.9921875 7.6542969 z M 8 13 C 4.8200032 13 2.0999989 14.870003 1 17.5 C 2.0999989 20.129997 4.8200032 22 8 22 C 10.857772 22 13.340409 20.488285 14.613281 18.273438 L 9.4824219 13.144531 C 9.0023829 13.053516 8.5082797 13 8 13 z M 8 15 C 9.3799986 15 10.5 16.120001 10.5 17.5 C 10.5 18.879999 9.3799986 20 8 20 C 6.6200014 20 5.5 18.879999 5.5 17.5 C 5.5 16.120001 6.6200014 15 8 15 z M 8 16 C 7.1700008 16 6.5 16.670001 6.5 17.5 C 6.5 18.329999 7.1700008 19 8 19 C 8.8299992 19 9.5 18.329999 9.5 17.5 C 9.5 16.670001 8.8299992 16 8 16 z M 16.072266 19.734375 C 15.515473 20.581773 14.82768 21.330197 14.039062 21.949219 C 15.213737 21.827781 16.329009 21.501151 17.347656 21.007812 L 16.072266 19.734375 z " /><rect
     style="display:inline;fill:#ff0000;stroke:none;stroke-width:7.20571;stroke-dasharray:none;stroke-opacity:1"
     id="rect2"
     width="473.07748"
     height="51.114143"
     x="104.38254"
     y="-25.557417"
     transform="matrix(0.0452549,0.0452549,-0.0452549,0.0452549,-3.4281026,-3.4283849)" /></svg>
