<?xml version="1.0" encoding="UTF-8" standalone="no"?>
<!-- Generator: Adobe Illustrator 16.0.0, SVG Export Plug-In . SVG Version: 6.00 Build 0)  -->

<svg
   version="1.1"
   id="Capa_1"
   x="0px"
   y="0px"
   width="482.136px"
   height="482.135px"
   viewBox="0 0 482.136 482.135"
   style="enable-background:new 0 0 482.136 482.135;"
   xml:space="preserve"
   sodipodi:docname="unlink.svg"
   inkscape:version="1.3 (0e150ed6c4, 2023-07-21)"
   xmlns:inkscape="http://www.inkscape.org/namespaces/inkscape"
   xmlns:sodipodi="http://sodipodi.sourceforge.net/DTD/sodipodi-0.dtd"
   xmlns="http://www.w3.org/2000/svg"
   xmlns:svg="http://www.w3.org/2000/svg"><defs
   id="defs16"><inkscape:path-effect
     effect="fill_between_many"
     method="originald"
     linkedpaths="#path20,0,1|"
     id="path-effect26" /></defs><sodipodi:namedview
   id="namedview16"
   pagecolor="#505050"
   bordercolor="#eeeeee"
   borderopacity="1"
   inkscape:showpageshadow="0"
   inkscape:pageopacity="0"
   inkscape:pagecheckerboard="0"
   inkscape:deskcolor="#d1d1d1"
   showgrid="false"
   inkscape:zoom="0.097353436"
   inkscape:cx="-498.18478"
   inkscape:cy="35.951479"
   inkscape:window-width="1920"
   inkscape:window-height="986"
   inkscape:window-x="2149"
   inkscape:window-y="830"
   inkscape:window-maximized="1"
   inkscape:current-layer="Capa_1" />&#10;&#10;&#10;&#10;&#10;&#10;&#10;&#10;&#10;&#10;&#10;&#10;&#10;&#10;&#10;&#10;<path
   id="path1"
   style="enable-background:new 0 0 482.136 482.135;fill:#ffffff;display:inline"
   d="M 348.28543 0.00073975541 C 325.00485 0.00073975541 301.72083 8.8807308 283.95337 26.641196 L 238.02772 72.584619 L 280.89986 115.45695 L 326.82801 69.521055 C 338.65099 57.707079 357.89324 57.707079 369.71522 69.521055 L 412.5974 112.40343 C 424.41338 124.23739 424.41338 143.47239 412.5974 155.30337 L 321.19309 246.70557 L 364.07527 289.58794 L 455.48209 198.18323 C 491.01803 162.66231 491.01703 105.04398 455.48209 69.521055 L 412.5974 26.641196 C 394.84344 8.8807308 371.566 0.00073975541 348.28543 0.00073975541 z M 219.62884 128.66041 C 214.56205 128.66041 209.50478 129.15655 204.4969 130.00637 L 299.75325 225.26313 L 326.83053 198.18323 L 283.95337 155.30086 C 266.18339 137.5404 242.90666 128.66041 219.62884 128.66041 z M 118.06459 192.54075 L 26.655254 283.94546 C -8.8826754 319.4904 -8.8826754 377.09167 26.655254 412.59759 L 69.537435 455.47996 C 105.04736 491.0199 162.64806 491.0199 198.18398 455.47996 L 244.08451 409.57672 L 201.20735 366.69686 L 155.3018 412.59759 C 143.45682 424.44357 124.23911 424.41457 112.42213 412.59759 L 69.537435 369.71774 C 57.692459 357.89676 57.692459 338.67532 69.537435 326.83034 L 160.94426 235.42312 L 118.06459 192.54075 z M 182.3866 256.86556 L 155.3018 283.94546 L 198.18398 326.83285 C 219.8327 348.48279 249.64848 356.90061 277.68564 352.16502 L 182.3866 256.86556 z "
   transform="matrix(0.77779428,0,0,0.77779086,53.562618,53.567784)" />&#10;<rect
   style="display:inline;fill:#ff0000;stroke:none;stroke-width:7.20571;stroke-dasharray:none;stroke-opacity:1"
   id="rect1"
   width="473.07748"
   height="51.114143"
   x="104.38254"
   y="-25.557417"
   transform="rotate(45)" /></svg>
