<?xml version="1.0" encoding="UTF-8" standalone="no"?>
<svg
   height="24px"
   viewBox="0 0 24 24"
   width="24px"
   fill="#FFFFFF"
   version="1.1"
   id="svg2"
   sodipodi:docname="unlock.svg"
   inkscape:version="1.3.2 (091e20e, 2023-11-25, custom)"
   xmlns:inkscape="http://www.inkscape.org/namespaces/inkscape"
   xmlns:sodipodi="http://sodipodi.sourceforge.net/DTD/sodipodi-0.dtd"
   xmlns="http://www.w3.org/2000/svg"
   xmlns:svg="http://www.w3.org/2000/svg">
  <defs
     id="defs2" />
  <sodipodi:namedview
     id="namedview2"
     pagecolor="#505050"
     bordercolor="#eeeeee"
     borderopacity="1"
     inkscape:showpageshadow="0"
     inkscape:pageopacity="0"
     inkscape:pagecheckerboard="0"
     inkscape:deskcolor="#d1d1d1"
     showgrid="false"
     inkscape:zoom="8"
     inkscape:cx="2.9375"
     inkscape:cy="11.5625"
     inkscape:window-width="1920"
     inkscape:window-height="986"
     inkscape:window-x="1070"
     inkscape:window-y="831"
     inkscape:window-maximized="1"
     inkscape:current-layer="svg2" />
  <path
     d="M0 0h24v24H0z"
     fill="none"
     id="path1" />
  <path
     id="path2"
     d="M 12 1 C 9.2571116 1 7.0294862 3.2128029 7.0019531 5.9492188 L 8.9023438 5.9492188 C 8.9298286 4.2628224 10.307145 2.9003906 12 2.9003906 C 13.709998 2.9003906 15.099609 4.2900017 15.099609 6 L 15.099609 8 L 9.4472656 8 L 8.9003906 8 L 7 8 L 6.640625 8 L 6 8 C 4.9000011 8 4 8.9000011 4 10 L 4 20 C 4 21.099999 4.9000011 22 6 22 L 18 22 C 19.099999 22 20 21.099999 20 20 L 20 10 C 20 8.9000011 19.099999 8 18 8 L 17 8 L 17 6 C 17 3.2400028 14.759997 1 12 1 z M 12 13 C 13.099999 13 14 13.900001 14 15 C 14 16.099999 13.099999 17 12 17 C 10.900001 17 10 16.099999 10 15 C 10 13.900001 10.900001 13 12 13 z " />
</svg>
