<?xml version="1.0" encoding="UTF-8" standalone="no"?>
<svg
   height="24px"
   viewBox="0 0 24 24"
   width="24px"
   fill="#fff"
   version="1.1"
   id="svg2"
   sodipodi:docname="worker_crash.svg"
   inkscape:version="1.3.2 (091e20e, 2023-11-25, custom)"
   xml:space="preserve"
   xmlns:inkscape="http://www.inkscape.org/namespaces/inkscape"
   xmlns:sodipodi="http://sodipodi.sourceforge.net/DTD/sodipodi-0.dtd"
   xmlns="http://www.w3.org/2000/svg"
   xmlns:svg="http://www.w3.org/2000/svg"><defs
     id="defs2"><inkscape:path-effect
       effect="powerclip"
       id="path-effect891"
       is_visible="true"
       lpeversion="1"
       inverse="true"
       flatten="false"
       hide_clip="false"
       message="Use fill-rule evenodd on &lt;b&gt;fill and stroke&lt;/b&gt; dialog if no flatten result after convert clip to paths." /><inkscape:path-effect
       effect="powerclip"
       id="path-effect858"
       is_visible="true"
       lpeversion="1"
       inverse="true"
       flatten="false"
       hide_clip="false"
       message="Use fill-rule evenodd on &lt;b&gt;fill and stroke&lt;/b&gt; dialog if no flatten result after convert clip to paths." /><clipPath
       clipPathUnits="userSpaceOnUse"
       id="clipPath854"><path
         id="lpe_path-effect858"
         style="fill:#00ff3c;fill-opacity:1;stroke-width:0.799757"
         class="powerclip"
         d="M 317.20692,120.39699 H 588.41295 V 391.60301 H 317.20692 Z m 222.4076,135.15031 a 86.691422,86.691422 0 0 0 -86.69142,-86.69142 86.691422,86.691422 0 0 0 -86.69143,86.69142 86.691422,86.691422 0 0 0 86.69143,86.69142 86.691422,86.691422 0 0 0 86.69142,-86.69142 z" /></clipPath><clipPath
       clipPathUnits="userSpaceOnUse"
       id="clipPath887"><circle
         style="display:block;fill:#ff0000;fill-opacity:1;stroke:none;stroke-width:0.423053"
         id="circle889"
         cx="236.32378"
         cy="473.5918"
         r="73.22036" /></clipPath></defs><sodipodi:namedview
     id="namedview2"
     pagecolor="#505050"
     bordercolor="#eeeeee"
     borderopacity="1"
     inkscape:showpageshadow="0"
     inkscape:pageopacity="0"
     inkscape:pagecheckerboard="0"
     inkscape:deskcolor="#d1d1d1"
     showgrid="false"
     inkscape:zoom="22.627417"
     inkscape:cx="11.203223"
     inkscape:cy="16.329747"
     inkscape:window-width="1920"
     inkscape:window-height="986"
     inkscape:window-x="-10"
     inkscape:window-y="-10"
     inkscape:window-maximized="1"
     inkscape:current-layer="svg2" /><g
     id="g5"
     inkscape:label="bgremove"
     style="display:none"><path
       id="path12"
       style="display:none;opacity:1;fill:#ff0000;fill-rule:evenodd;stroke-width:0.270677;stroke-linecap:round"
       d="M 3.7054053 -2.6723664 L 3.7067863 -0.89216988 L 3.7067863 -0.88940775 L 3.7067863 0.89216988 L 31.634742 0.89216988 L 31.634742 -0.88940775 L 31.634742 -0.89216988 L 31.634742 -2.6737475 L 3.7054053 -2.6723664 z "
       transform="rotate(45)" /><rect
       style="display:inline;opacity:1;fill:#0000ff;fill-rule:evenodd;stroke-width:0.270677;stroke-linecap:round"
       id="rect6"
       width="27.928919"
       height="1.7837086"
       x="3.7045195"
       y="-1.7685938"
       transform="rotate(45)" /></g><path
     id="circle51"
     style="fill:#ff0000;fill-opacity:1;fill-rule:evenodd;stroke:none;stroke-width:22;stroke-miterlimit:4;stroke-dasharray:none;stroke-opacity:1"
     d="M 341.35706 0.023687746 A 341.33334 341.33334 0 0 0 168.06246 48.09216 L 330.37884 210.40854 C 348.49299 161.8512 396.34124 125.57846 450.33294 124.62957 C 477.80086 124.14683 506.85254 132.78146 534.31321 153.5947 C 621.19187 225.81574 584.0938 347.36982 499.02165 379.05135 L 634.60576 514.57343 A 341.33334 341.33334 0 0 0 682.67423 341.34085 A 341.33334 341.33334 0 0 0 341.35706 0.023687746 z M 81.725285 121.8385 A 341.33334 341.33334 0 0 0 1.5284658 319.44644 L 184.68485 394.12314 C 211.0869 376.7731 240.25821 379.23742 240.25821 379.23742 L 280.01549 320.1287 L 81.725285 121.8385 z M 453.6202 168.72852 A 87.582495 87.051694 0 0 0 367.15898 247.18867 L 391.34827 271.31594 A 64.735629 64.343301 0 0 1 388.86732 255.74796 A 64.735629 64.343301 0 0 1 453.6202 191.42924 A 64.735629 64.343301 0 0 1 518.31106 255.74796 A 64.735629 64.343301 0 0 1 453.6202 320.1287 A 64.735629 64.343301 0 0 1 437.61805 317.58573 L 462.36556 342.39526 A 87.582495 87.051694 0 0 0 541.19786 255.74796 A 87.582495 87.051694 0 0 0 453.6202 168.72852 z M 3.327157 388.23087 A 341.33334 341.33334 0 0 0 3.6993 390.8979 C 3.5676895 389.98006 3.4499605 389.13825 3.327157 388.23087 z M 235.85452 401.00778 A 73.003098 73.003098 0 0 0 212.03736 405.53552 L 252.16679 421.22756 A 53.625228 54.723716 0 0 1 254.58571 422.21994 L 254.64774 422.21994 A 53.625228 54.723716 0 0 1 287.89251 472.83139 A 53.625228 54.723716 0 0 1 234.30392 527.59843 A 53.625228 54.723716 0 0 1 215.38665 523.93903 L 215.38665 524.00105 L 212.71963 522.88462 A 53.625228 54.723716 0 0 1 211.78927 522.51248 L 170.35735 505.02176 A 73.003098 73.003098 0 0 0 235.85452 547.01189 A 73.003098 73.003098 0 0 0 308.85657 473.94782 A 73.003098 73.003098 0 0 0 235.85452 401.00778 z M 389.30149 429.4147 L 331.0611 471.15674 C 328.34546 591.08693 169.20228 602.49675 142.81876 494.16759 L 15.049662 440.76506 A 341.33334 341.33334 0 0 0 341.35706 682.65802 A 341.33334 341.33334 0 0 0 561.6037 601.71692 L 389.30149 429.4147 z "
     transform="matrix(0.03148991,0,0,0.03148991,1.25265,1.2512072)" /><rect
     style="display:inline;opacity:1;fill:#ff0000;fill-rule:evenodd;stroke-width:0.270677;stroke-linecap:round"
     id="rect51"
     width="27.928919"
     height="1.7837086"
     x="3.7045195"
     y="-1.7685938"
     transform="rotate(45)" /></svg>
