<?xml version="1.0" encoding="UTF-8" standalone="no"?>
<svg
   height="24px"
   viewBox="0 0 24 24"
   width="24px"
   fill="#fff"
   version="1.1"
   id="svg2"
   sodipodi:docname="worker_crash.svg"
   inkscape:version="1.3.2 (091e20e, 2023-11-25, custom)"
   xmlns:inkscape="http://www.inkscape.org/namespaces/inkscape"
   xmlns:sodipodi="http://sodipodi.sourceforge.net/DTD/sodipodi-0.dtd"
   xmlns="http://www.w3.org/2000/svg"
   xmlns:svg="http://www.w3.org/2000/svg">
  <defs
     id="defs2" />
  <sodipodi:namedview
     id="namedview2"
     pagecolor="#505050"
     bordercolor="#eeeeee"
     borderopacity="1"
     inkscape:showpageshadow="0"
     inkscape:pageopacity="0"
     inkscape:pagecheckerboard="0"
     inkscape:deskcolor="#d1d1d1"
     showgrid="false"
     inkscape:zoom="31.291667"
     inkscape:cx="12"
     inkscape:cy="12"
     inkscape:window-width="1920"
     inkscape:window-height="986"
     inkscape:window-x="-10"
     inkscape:window-y="-10"
     inkscape:window-maximized="1"
     inkscape:current-layer="svg2" />
  <path
     d="M0 0h24v24H0z"
     fill="none"
     id="path1" />
  <path
     d="M23 21.74l-1.46-1.46L7.21 5.95 3.25 1.99 1.99 3.25l2.7 2.7h-.64c-1.11 0-1.99.89-1.99 2l-.01 11c0 1.11.89 2 2 2h15.64L21.74 23 23 21.74zM22 7.95c.05-1.11-.84-2-1.95-1.95h-4V3.95c0-1.11-.89-2-2-1.95h-4c-1.11-.05-2 .84-2 1.95v.32l13.95 14V7.95zM14.05 6H10V3.95h4.05V6z"
     id="path2"
     style="fill:#ff0000" />
</svg>
