<?xml version="1.0" encoding="UTF-8" standalone="no"?>
<!-- Created with Inkscape (http://www.inkscape.org/) -->

<svg
   width="64mm"
   height="64mm"
   viewBox="0 0 64 64"
   version="1.1"
   id="svg1"
   inkscape:version="1.3 (0e150ed6c4, 2023-07-21)"
   sodipodi:docname="s.svg"
   xmlns:inkscape="http://www.inkscape.org/namespaces/inkscape"
   xmlns:sodipodi="http://sodipodi.sourceforge.net/DTD/sodipodi-0.dtd"
   xmlns="http://www.w3.org/2000/svg"
   xmlns:svg="http://www.w3.org/2000/svg">
  <sodipodi:namedview
     id="namedview1"
     pagecolor="#505050"
     bordercolor="#eeeeee"
     borderopacity="1"
     inkscape:showpageshadow="0"
     inkscape:pageopacity="0"
     inkscape:pagecheckerboard="0"
     inkscape:deskcolor="#d1d1d1"
     inkscape:document-units="mm"
     inkscape:zoom="1.3380612"
     inkscape:cx="90.803022"
     inkscape:cy="141.62282"
     inkscape:window-width="1920"
     inkscape:window-height="986"
     inkscape:window-x="2149"
     inkscape:window-y="830"
     inkscape:window-maximized="1"
     inkscape:current-layer="layer1"
     showgrid="false" />
  <defs
     id="defs1">
    <rect
       x="53.061849"
       y="52.688174"
       width="140.12812"
       height="125.92847"
       id="rect1" />
  </defs>
  <g
     inkscape:label="Layer 1"
     inkscape:groupmode="layer"
     id="layer1">
    <path
       id="path1"
       style="fill:#ffffff;stroke-width:0.0259459"
       d="M 32.000114 0 A 32 32 0 0 0 0 32.000114 A 32 32 0 0 0 32.000114 64.000228 A 32 32 0 0 0 64.000228 32.000114 A 32 32 0 0 0 32.000114 0 z M 33.528703 16.034163 C 35.136412 16.034163 36.557518 16.134473 37.792008 16.335437 C 39.040854 16.522046 40.189395 16.81666 41.237276 17.218587 L 41.237276 23.656437 C 40.720513 23.297574 40.153333 22.981944 39.536088 22.709208 C 38.933197 22.436472 38.308772 22.213803 37.662817 22.041549 C 37.016863 21.85494 36.370906 21.718399 35.724951 21.632271 C 35.093351 21.546144 34.490458 21.50308 33.916276 21.50308 C 33.126776 21.50308 32.408874 21.582375 31.762919 21.740275 C 31.116965 21.88382 30.571834 22.09179 30.126843 22.364526 C 29.681852 22.637263 29.337342 22.967591 29.093315 23.355164 C 28.849287 23.728382 28.726929 24.15167 28.726929 24.62537 C 28.726929 25.142134 28.86347 25.608486 29.136206 26.024768 C 29.408942 26.426695 29.796517 26.81427 30.298926 27.187488 C 30.801335 27.546351 31.411578 27.905561 32.129305 28.264425 C 32.847032 28.608934 33.657895 28.967627 34.562231 29.340845 C 35.796722 29.857608 36.902199 30.410088 37.878308 30.998625 C 38.868772 31.572806 39.715349 32.226113 40.418722 32.958195 C 41.122094 33.690277 41.660392 34.530021 42.03361 35.477421 C 42.406828 36.410466 42.593783 37.501244 42.593783 38.75009 C 42.593783 40.472635 42.263454 41.922622 41.603145 43.099695 C 40.957191 44.262413 40.074383 45.209817 38.954728 45.941899 C 37.835074 46.659626 36.528977 47.176392 35.036104 47.492192 C 33.557586 47.807992 31.99259 47.966064 30.341817 47.966064 C 28.647981 47.966064 27.033088 47.822174 25.497152 47.535083 C 23.97557 47.247992 22.655291 46.817354 21.535636 46.243172 L 21.535636 39.353153 C 22.784482 40.401035 24.140992 41.190366 25.605155 41.721484 C 27.069319 42.238248 28.547671 42.496631 30.040544 42.496631 C 30.916171 42.496631 31.677137 42.417853 32.323092 42.259953 C 32.983401 42.102053 33.528531 41.886734 33.959167 41.613997 C 34.404158 41.326907 34.734487 40.996578 34.949805 40.62336 C 35.165123 40.235788 35.272782 39.819848 35.272782 39.374858 C 35.272782 38.771967 35.100527 38.233669 34.756018 37.759969 C 34.411509 37.286269 33.937807 36.848281 33.334916 36.446354 C 32.74638 36.044427 32.043176 35.656853 31.224967 35.283634 C 30.406759 34.910416 29.52395 34.530191 28.57655 34.142619 C 26.164987 33.137801 24.363139 31.910482 23.171712 30.460673 C 21.99464 29.010864 21.406445 27.25943 21.406445 25.20673 C 21.406445 23.599021 21.729424 22.220979 22.375378 21.072616 C 23.021333 19.909898 23.896792 18.955144 25.002091 18.208708 C 26.121746 17.462271 27.413661 16.917141 28.877824 16.572632 C 30.341987 16.213768 31.892285 16.034163 33.528703 16.034163 z " />
  </g>
</svg>
